<?xml version="1.0" standalone="no"?>
<!DOCTYPE svg PUBLIC "-//W3C//DTD SVG 1.1//EN" "http://www.w3.org/Graphics/SVG/1.1/DTD/svg11.dtd" >
<svg xmlns="http://www.w3.org/2000/svg">
<metadata>
Created by FontForge 20120731 at Wed Dec  7 15:16:47 2016
 By admin
</metadata>
<defs>
<font id="iconfont" horiz-adv-x="1024" >
  <font-face 
    font-family="iconfont"
    font-weight="500"
    font-stretch="normal"
    units-per-em="1024"
    panose-1="2 0 6 3 0 0 0 0 0 0"
    ascent="896"
    descent="-128"
    x-height="792"
    bbox="-57 -224 1536 897"
    underline-thickness="0"
    underline-position="0"
    unicode-range="U+0078-E757"
  />
<missing-glyph 
 />
    <glyph glyph-name=".notdef" 
 />
    <glyph glyph-name=".notdef" 
 />
    <glyph glyph-name=".null" horiz-adv-x="0" 
 />
    <glyph glyph-name="nonmarkingreturn" horiz-adv-x="341" 
 />
    <glyph glyph-name="x" unicode="x" horiz-adv-x="1001" 
d="M281 543q-27 -1 -53 -1h-83q-18 0 -36.5 -6t-32.5 -18.5t-23 -32t-9 -45.5v-76h912v41q0 16 -0.5 30t-0.5 18q0 13 -5 29t-17 29.5t-31.5 22.5t-49.5 9h-133v-97h-438v97zM955 310v-52q0 -23 0.5 -52t0.5 -58t-10.5 -47.5t-26 -30t-33 -16t-31.5 -4.5q-14 -1 -29.5 -0.5
t-29.5 0.5h-32l-45 128h-439l-44 -128h-29h-34q-20 0 -45 1q-25 0 -41 9.5t-25.5 23t-13.5 29.5t-4 30v167h911zM163 247q-12 0 -21 -8.5t-9 -21.5t9 -21.5t21 -8.5q13 0 22 8.5t9 21.5t-9 21.5t-22 8.5zM316 123q-8 -26 -14 -48q-5 -19 -10.5 -37t-7.5 -25t-3 -15t1 -14.5
t9.5 -10.5t21.5 -4h37h67h81h80h64h36q23 0 34 12t2 38q-5 13 -9.5 30.5t-9.5 34.5q-5 19 -11 39h-368zM336 498v228q0 11 2.5 23t10 21.5t20.5 15.5t34 6h188q31 0 51.5 -14.5t20.5 -52.5v-227h-327z" />
    <glyph glyph-name="qinggan" unicode="&#xe626;" horiz-adv-x="1054" 
d="M543 743q45 63 100 92.5t112 30.5t111 -23t95 -68.5t67 -106.5t26 -137q0 -77 -29.5 -145t-74.5 -126t-99 -108.5t-105 -91.5q-34 -28 -61.5 -49.5t-48 -39t-36 -31t-29.5 -24.5q-8 6 -14 19q-5 12 -9.5 33.5t-4.5 55.5q0 44 4.5 70t9.5 40q6 17 14 22q14 11 31.5 25
t43.5 35q28 23 57 50t53.5 58.5t40.5 68.5t16 80q0 49 -20.5 88.5t-51.5 63t-69.5 28.5t-75.5 -12q-7 -17 -21.5 -29t-32.5 -16q-3 -5 -7 -9.5t-8 -11.5q-8 14 -14 21q-19 4 -33.5 16t-21.5 29q-37 17 -75 12t-69.5 -29t-51.5 -63.5t-20 -89.5q0 -42 15.5 -79t40.5 -68
t54.5 -58t56.5 -50q25 -21 42.5 -35.5t30.5 -25.5q8 -5 15 -22q5 -14 10 -39.5t5 -69.5q0 -33 -5 -54t-10 -33q-7 -15 -15 -22q-13 11 -29 24.5t-36.5 30.5t-47 39t-61.5 51q-49 42 -103.5 92t-100 107.5t-75 125t-29.5 144.5q0 75 25.5 137.5t67 107t96 69t111 23.5
t112 -30.5t100.5 -92.5q10 2 15 2t16 -2z" />
    <glyph glyph-name="weixin" unicode="&#xe606;" horiz-adv-x="1000" 
d="M668 471q14 0 30 -2q-20 94 -109 155.5t-203 61.5q-128 0 -218.5 -76.5t-90.5 -185.5q0 -123 124 -209l-31 -93l108 54q78 -15 108 -15q13 0 29 1q-9 33 -9 65q0 101 76 172.5t186 71.5zM502 555q18 0 28.5 -10.5t10.5 -28t-10.5 -28t-28.5 -10.5t-32 11t-14 27.5
t14 27.5t32 11zM286 478q-18 0 -32.5 11t-14.5 27.5t14.5 27.5t32.5 11q17 0 27.5 -10.5t10.5 -28t-10.5 -28t-27.5 -10.5zM950 230q0 92 -78.5 158.5t-183.5 66.5q-110 0 -186.5 -66t-76.5 -159t76.5 -158.5t186.5 -65.5q31 0 92 16l85 -47l-23 77q108 82 108 178zM603 269
q-12 0 -21.5 9.5t-9.5 21.5t9.5 21.5t21.5 9.5q16 0 27 -9.5t11 -21.5t-11 -21.5t-27 -9.5zM773 269q-12 0 -21.5 9.5t-9.5 21.5t9.5 21.5t21.5 9.5q16 0 27 -9.5t11 -21.5t-11 -21.5t-27 -9.5z" />
    <glyph glyph-name="shangsanjiao" unicode="&#xe6b4;" horiz-adv-x="1000" 
d="M35 38l434 593l433 -593h-867z" />
    <glyph glyph-name="weixin1" unicode="&#xe6b7;" horiz-adv-x="1000" 
d="M676 471q16 0 34 -2q-23 106 -123.5 176t-229.5 70q-95 0 -175.5 -39.5t-127.5 -108t-47 -150.5q0 -138 140 -236l-35 -106l122 62q89 -18 123 -18q15 0 33 2q-11 37 -11 73q0 115 86.5 196t210.5 81zM485.5 573q22.5 0 38.5 -16t16 -38.5t-16 -38t-38.5 -15.5t-38 15.5
t-15.5 38t15.5 38.5t38 16zM240.5 464q-22.5 0 -38 15.5t-15.5 38t15.5 38.5t38 16t38.5 -16t16 -38.5t-16 -38t-38.5 -15.5zM994 197q0 68 -41.5 127t-110 93t-146.5 34q-124 0 -211 -74.5t-87 -179.5t87 -179.5t211 -74.5q35 0 105 18l96 -53l-26 87q123 92 123 202z
M605 236q-16 0 -27.5 11.5t-11.5 27.5t11.5 27t27.5 11t27 -11t11 -27t-11 -27.5t-27 -11.5zM797 234q-16 0 -27 11.5t-11 27.5t11 27t27 11t27.5 -11t11.5 -27t-11.5 -27.5t-27.5 -11.5z" />
    <glyph glyph-name="kuaijie" unicode="&#xe68f;" 
d="M956 674q-4 -119 -50 -239q-56 -143 -161 -239q-8 -8 -7 -19q2 -12 4 -37t3 -37q10 -88 -60 -138q-39 -28 -153 -103q-25 -16 -49 -4t-27 40q-5 52 -11 133q-1 17 -3.5 20t-18.5 5q-87 12 -132 84q-22 35 -26 82q-1 11 -13 12q-83 4 -138 8q-28 2 -40 27t3 50q0 1 45 70
q6 10 22.5 36t25.5 40q45 70 126 71q12 0 93 -9q9 -1 14 5q101 113 262 171q85 31 176 41q54 5 91 -2q12 -2 15 -5t5 -15q5 -29 4 -48zM782 470q0 41 -29 71.5t-69 30.5q-43 1 -73.5 -27.5t-31.5 -74.5q-1 -40 29.5 -70.5t70.5 -30.5q42 0 72 29.5t31 71.5zM185 160
q19 0 26 -20q29 -82 104 -124q16 -9 35 -15q17 -6 20 -19.5t-9 -25.5t-36 -36.5t-36 -36.5q-13 -13 -28 -7q-17 6 -17 24q-1 4 -1 12v10q0 11 -1.5 12t-11.5 -2q-14 -5 -41 -13.5t-40 -13.5q-14 -4 -23 1q-18 10 -11 32q5 16 15.5 47.5t11.5 35.5q3 9 2 10.5t-11 1.5h-9.5
t-14.5 1q-17 1 -23 16q-6 16 6 28l75 75q8 8 18 7z" />
    <glyph glyph-name="bofang" unicode="&#xe66f;" 
d="M508 672q-101 0 -187 -50t-136 -136t-50 -187.5t50 -187.5t136 -136t187 -50t187 50t136 136t50 187.5t-50 187.5t-136 136t-187 50zM508 -7q-127 0 -216 89.5t-89 216t89 216t216 89.5t216 -89.5t89 -216t-89 -216t-216 -89.5zM406 146l289 170l-289 135v-305z" />
    <glyph glyph-name="jinzhi" unicode="&#xe668;" 
d="M875 662q-74 74 -170 112t-193 38t-192.5 -38t-169.5 -112t-112 -169.5t-38 -192.5t38 -193t112 -169.5t169.5 -112t192.5 -38.5t193 38.5t170 111.5q98 99 133 231t0 263.5t-133 230.5zM256 236v128h513v-128h-513z" />
    <glyph glyph-name="renqun" unicode="&#xe6ad;" 
d="M516 270q41 27 64.5 69t23.5 92q0 82 -59 142t-139 60q-81 0 -138 -59.5t-57 -142.5q0 -49 21.5 -91.5t57.5 -69.5q-95 -35 -154.5 -115.5t-59.5 -179.5h662q0 100 -61 180.5t-161 114.5v0zM647 431q0 -43 -17 -84t-47 -69q92 -45 144.5 -126t52.5 -177h168q0 80 -49 146
t-126 93q29 22 47.5 59t18.5 71q0 69 -46 116t-115 47q-24 0 -42 -7q1 -5 4 -19.5t5 -26.5t2 -23z" />
    <glyph glyph-name="settings2" unicode="&#xe6ba;" 
d="M883 205h76v192h-76q-58 0 -70 29t29 70l54 53l-136 136l-53 -54q-41 -41 -70 -29t-29 70v1v75h-192v-76q0 -58 -29 -70t-70 29l-53 54l-136 -136l54 -53q41 -41 29 -70t-70 -29h-76v-192h76q58 0 70 -29t-29 -70l-54 -53l136 -136l53 54q41 41 70 29t29 -70v-76h192v76
v0q0 58 29 70t70 -29l53 -54l136 136l-54 53q-41 41 -29 70t70 29v0zM512 133q-69 0 -118.5 49.5t-49.5 118.5t49.5 118.5t118.5 49.5t118.5 -49.5t49.5 -118.5t-49.5 -118.5t-118.5 -49.5v0zM512 133z" />
    <glyph glyph-name="xinwen" unicode="&#xe607;" 
d="M502 -36h-360q-45 0 -61 15t-16 59v274.5t-1 274.5q0 29 11 40t40 11q306 -2 685 -1q28 1 39 -8.5t11 -36.5q-1 -51 8 -60.5t58 -9.5q26 0 35 -11.5t8 -36.5v-209v-209q0 -47 -22.5 -69.5t-70.5 -22.5h-364zM111 18q26 -4 27 -4q580 -1 627 -1q26 0 33.5 12t7.5 37
q0 373 1 472q0 32 -12.5 43t-44.5 11q-49 -1 -588 -1q-2 0 -51 -3v-566zM312 80q-9 0 -31.5 -0.5t-39 0t-30.5 2.5q-10 1 -21.5 12.5t-12.5 20.5q-2 39 -1.5 101.5t-0.5 101.5q0 21 9 29t30 8q102 -2 198 0q21 0 29.5 -8.5t8.5 -28.5q-2 -115 0 -199q0 -23 -9.5 -31.5
t-31.5 -7.5h-97zM454 422q-199 0 -238 1q-6 0 -12.5 3.5t-14.5 9.5l-12 9q4 2 11.5 8t14 9t11.5 3q242 2 481 0q5 0 11 -3.5t14 -9.5t12 -8q-5 -2 -13 -8t-14.5 -9.5t-12.5 -3.5q-39 -1 -238 -1zM625 354q69 0 78 -1q4 0 9 -4t11 -10t9 -8q-3 -3 -8.5 -10t-10 -11t-8.5 -4
q-80 -4 -160 0q-4 0 -8.5 4t-10 11t-8.5 10q3 2 9 8t11 10t10 4q8 1 77 1zM619 188q-69 0 -78 1q-6 1 -13.5 9.5t-7.5 14.5t8 14.5t14 8.5q81 3 165 0q4 0 8 -3.5t9 -9.5t8 -8q-3 -3 -8 -10t-9.5 -11t-8.5 -5q-10 -1 -87 -1v0zM593 80q-5 0 -15.5 -0.5t-18 0t-14.5 1.5
q-4 1 -8.5 4.5t-10 8.5t-7.5 7q3 2 8.5 7.5t10 8.5t9.5 3q51 3 100 0q5 -1 9 -4t9.5 -8.5t8.5 -7.5q-3 -2 -9 -7t-10.5 -8t-8.5 -4q-5 -1 -53 -1z" />
    <glyph glyph-name="order" unicode="&#xe633;" 
d="M706 328h-385q-9 0 -15.5 -6.5t-6.5 -16.5v-11q0 -9 6.5 -15.5t15.5 -6.5h385q9 0 15 6.5t6 15.5v11q0 10 -6 16.5t-15 6.5zM504 126h-184q-9 0 -15 -7t-6 -16v-11q0 -10 6 -16.5t15 -6.5h184q9 0 15 6.5t6 16.5v11q0 9 -6 16t-15 7zM896 800h-766q-18 0 -31.5 -13.5
t-13.5 -33.5v-929q0 -20 13.5 -33.5t31.5 -13.5h546q20 4 38 22l205 205q18 17 23 46v703q0 20 -13.5 33.5t-32.5 13.5zM885 11v2v0v-2zM885 58h-175q-30 0 -40 -10.5t-10 -39.5v-116v0v-59h-493q-11 0 -18 7.5t-7 18.5v859q0 11 7 18.5t18 7.5h693q11 0 18 -7.5t7 -18.5
v-660v0zM706 542h-385q-9 0 -15.5 -7t-6.5 -16v-11q0 -10 6.5 -16.5t15.5 -6.5h385q9 0 15 6.5t6 16.5v11q0 9 -6 16t-15 7z" />
    <glyph glyph-name="iconfontcha" unicode="&#xe641;" 
d="M755 599l-243 -242l-243 242q-10 10 -23.5 10t-23.5 -9.5t-10 -23.5t10 -24l243 -243l-243 -243q-10 -9 -10 -23t10 -24t23.5 -10t23.5 10l243 243l243 -243q10 -10 23.5 -10t23.5 10t10 24t-10 23l-243 243l243 243q10 10 10 24t-10 23.5t-23.5 9.5t-23.5 -10z" />
    <glyph glyph-name="unie61d" unicode="&#xe608;" 
d="M-57 853v0v0zM743 324q-16 4 -21 10.5t-2 11.5l3 6q2 1 3 3.5t4 9.5t5 14t3 17.5t-0.5 20t-6.5 20.5t-14 20q-16 15 -40.5 19.5t-49.5 0.5t-47 -10t-36 -11l-15 -7q-11 -3 -18 -4t-11 0.5t-6 3t-1.5 7.5t1 10.5t2.5 14t3 15.5q0 13 -1.5 24.5t-7 26t-16 23t-26.5 14
t-41.5 3.5t-57.5 -13q-38 -13 -78 -39t-69 -54.5t-53.5 -54.5t-37.5 -43l-12 -18q-36 -47 -54 -94.5t-17 -71.5v-23q7 -53 33 -95t62 -68t84.5 -44.5t93 -26.5t94.5 -11q81 -7 169 12.5t163.5 66.5t106.5 114q19 38 19.5 72.5t-12 56t-31.5 38t-36 24t-31 9.5v0zM407 -19
q-119 -5 -202.5 46.5t-83.5 131.5q0 78 83 135t203 62.5t203 -40t83 -123.5q0 -79 -84.5 -142.5t-201.5 -69.5v0zM375 287q-32 -3 -57.5 -15t-40 -26.5t-24.5 -32t-13.5 -34t-4.5 -30t-1 -21.5l1 -9v-4q0 -3 2 -13t6 -18.5t12.5 -18.5t21.5 -16q72 -36 135 -22t102 64
q15 18 20 46t-2 56t-24.5 51t-52.5 35.5t-80 7.5v0zM335 78q-7 -1 -13 -0.5t-11 2.5t-9.5 4t-8 6t-6.5 7.5t-4.5 9t-1.5 10.5q0 12 6.5 23.5t18 20t26.5 9.5q10 1 19.5 -0.5t16 -5.5t11.5 -9t7 -11.5t2 -14.5q0 -12 -7 -23t-19.5 -18.5t-26.5 -9.5v0zM429 158
q-8 -6 -16 -5.5t-12 7.5l-2 4q-1 3 -1 5v4q0 4 1 6l2 4q1 2 4 3l3 5q9 7 17 5.5t12 -8.5q3 -5 2.5 -10.5t-3.5 -10.5t-7 -9v0zM821 388q6 0 11.5 3.5t9 8.5t4.5 10q1 2 1 4q13 126 -88 143q-30 6 -55 1q-8 0 -13.5 -3.5t-9.5 -10t-4 -12.5q0 -11 8 -19t19 -8q86 20 92 -55
q2 -19 -2 -35q0 -11 8 -19t19 -8v0zM802 700q-49 11 -130 -5q-1 0 -3 -1l-1 -2l-1 -1q-12 -4 -19.5 -14.5t-7.5 -22.5q0 -16 11 -27t26 -11h3q2 0 5.5 1t8 1.5t9.5 2t9 3.5t15 2t27 -2t35 -8.5t38.5 -16.5t39 -27.5t33.5 -40.5q29 -65 11 -126q0 -1 -0.5 -2t-1.5 -5.5
t-2 -8.5l-2.5 -10t-1.5 -10q0 -10 5.5 -17t14 -9.5t19.5 -2.5q31 0 36 37q14 43 15.5 82.5t-5.5 69t-21.5 55.5t-33.5 44.5t-42 33t-44.5 23.5t-44.5 15v0z" />
    <glyph glyph-name="tuichu" unicode="&#xe615;" 
d="M512 -148q-91 0 -174 35.5t-143 95.5t-95.5 143t-35.5 174q0 139 77.5 251t202.5 162v-108q-76 -45 -122 -123.5t-46 -172t45 -173t122.5 -126t168.5 -46.5t168.5 46.5t122.5 126t45 172.5q0 94 -46 172.5t-122 123.5v108q125 -50 202.5 -162t77.5 -251q0 -91 -35.5 -174
t-95.5 -143t-143 -95.5t-174 -35.5zM512 748q23 0 39.5 -16.5t16.5 -39.5v-336q0 -23 -16.5 -39.5t-39.5 -16.5t-39.5 16.5t-16.5 39.5v336q0 23 16.5 39.5t39.5 16.5z" />
    <glyph glyph-name="caiwu" unicode="&#xe627;" 
d="M512 752q-92 0 -175.5 -36t-144 -96.5t-96.5 -144t-36 -175.5t36 -175.5t96.5 -144t144 -96.5t175.5 -36t175.5 36t144 96.5t96.5 144t36 175.5t-36 175.5t-96.5 144t-144 96.5t-175.5 36zM684 301v-63h-135v-37h135v-61h-135v-112h-72v112h-136v61h136v37h-136v63h107
l-133 246h80l97 -182q11 -20 20 -40q12 27 21 44l91 178h85l-133 -246h108z" />
    <glyph glyph-name="gengduo" unicode="&#xe6b6;" 
d="M705 300zM641 300q0 27 18.5 45.5t45.5 18.5t45.5 -18.5t18.5 -45.5t-18.5 -45.5t-45.5 -18.5t-45.5 18.5t-18.5 45.5zM513 300zM449 300q0 27 18.5 45.5t45 18.5t45.5 -18.5t19 -45.5t-19 -45.5t-45.5 -18.5t-45 18.5t-18.5 45.5zM321 300zM256 300q0 27 19 45.5
t45.5 18.5t45.5 -18.5t19 -45.5t-19 -45.5t-45.5 -18.5t-45.5 18.5t-19 45.5zM512 -212q-104 0 -199 40.5t-163.5 109t-109 163.5t-40.5 199t40.5 199t109 163.5t163.5 109t199 40.5t199 -40.5t163.5 -109t109 -163.5t40.5 -199t-40.5 -199t-109 -163.5t-163.5 -109
t-199 -40.5zM512 774q-96 0 -184 -37.5t-151.5 -101t-101 -151.5t-37.5 -184t37.5 -184t101 -151.5t151.5 -101t184 -37.5t184 37.5t151.5 101t101 151.5t37.5 184t-37.5 184t-101 151.5t-151.5 101t-184 37.5z" />
    <glyph glyph-name="yanyi" unicode="&#xe669;" 
d="M913 392q-112 36 -210 153q-87 104 -112 210q-33 -40 -46.5 -90t-5.5 -100q20 -62 68.5 -118t106.5 -82q49 -14 101.5 -7.5t97.5 34.5zM146 16q-28 -30 -38 -59.5t-3 -53.5q6 -20 22 -32q17 -13 45 -16q51 -4 120.5 34t147.5 124q154 172 292 196q72 12 129 -17
q54 -29 83 -87q47 -95 13 -215l-65 18q27 96 -8 167q-20 40 -54 57q-37 20 -86 11q-115 -20 -254 -174q-89 -100 -173 -143t-151 -37q-47 4 -80 29.5t-46 65.5q-12 41 2.5 88t55.5 90zM131 114q-1 -64 64 -74l466 310q-48 31 -87.5 77.5t-60.5 99.5zM632 786
q74 38 158.5 21.5t139.5 -81.5q54 -62 59 -144t-39 -147q-20 0 -44 7q-90 27 -175 127q-83 100 -97 193q-2 12 -2 24z" />
    <glyph glyph-name="3gfenleitubiao" unicode="&#xe69f;" 
d="M910 -146h-80q-205 767 -238 861q-15 40 -34.5 67t-50.5 27q-51 0 -85 -96q-32 -92 -235 -859h-73q-13 0 -21.5 -9t-8.5 -22t8.5 -22t21.5 -9h796q13 0 21.5 9t8.5 22t-8.5 22t-21.5 9zM350 228h316q25 -91 54 -198h-423q28 107 53 198zM412 456h191q24 -84 54 -195h-298
q30 111 53 195zM480 693q14 40 27 54q13 -13 27 -53q14 -39 60 -205h-173q46 167 59 204zM250 -146q35 134 38 143h441q3 -14 38 -143h-517z" />
    <glyph glyph-name="xiasanjiao" unicode="&#xe6b5;" 
d="M960 812h-896l448 -512z" />
    <glyph glyph-name="yuedu" unicode="&#xe650;" 
d="M914 670q-118 14 -215 14q-102 0 -154 -28q-20 -9 -35 -22q-15 13 -35 22q-53 28 -155 28q-96 0 -214 -14q-30 -1 -50.5 -21.5t-20.5 -50.5v-581q0 -30 21 -51t50 -21h1h4q62 8 126 12q123 9 163 -3v0h1h0.5t1 -0.5l0.5 -0.5v0q7 -1 29 -8q50 -17 78 -17q23 0 73 15
q36 10 45 10q5 0 10 2q34 4 75 5t72 -1t62.5 -5.5t43 -5.5t17.5 -3h2h2q30 0 51 21t21 51v581q0 30 -20.5 50.5t-49.5 21.5zM413 3q-76 22 -307 -7q-8 0 -13.5 6t-5.5 15v581q0 9 6 15t14 6h2h1q114 13 210 13q89 0 132 -21v0l1 -1q10 -5 20 -12t11 -11v-600v-4
q-12 3 -36 11q-24 7 -35 9zM933 17q0 -8 -5.5 -14t-13.5 -7q-159 28 -289 8h-3q-16 -1 -53 -12q-23 -7 -34 -9v4v600q2 4 11.5 11t20.5 12v0l1 1q43 21 131 21q96 0 210 -13h2h1q9 0 15 -6t6 -15v-581zM148 396q78 19 165 19q63 0 106 -24q6 -3 13 -3q15 0 22 13q5 9 2 19.5
t-12 15.5q-55 30 -130 31h-1q-93 0 -178 -22q-10 -2 -15.5 -11t-3 -19.5t11.5 -16t20 -2.5zM445 227q-69 31 -132 31q-91 0 -159 -19q-10 -2 -15 -4q-10 -2 -15.5 -11t-3 -19.5t12 -16t19.5 -2.5q5 1 16 4q61 17 145 17q52 0 111 -27q5 -2 11 -2q16 0 23 15q4 10 0.5 19.5
t-13.5 14.5zM882 451q-115 23 -185 19q-72 -1 -122 -28q-9 -5 -12 -15t2 -20q7 -13 23 -13q6 0 12 3q39 22 98 22h1h1q63 4 172 -18q10 -2 19 4t11 16.5t-4 19t-16 10.5z" />
    <glyph glyph-name="pinpai" unicode="&#xe6ae;" 
d="M723 40h-453q-22 0 -37 -17t-15 -42t15 -42t37 -17h453q22 0 37.5 17t15.5 42t-15.5 42t-37.5 17v0zM932 571q-5 5 -12 9q-24 17 -54 17q-39 0 -67 -27.5t-28 -66.5q0 -49 40 -77q-14 -17 -29.5 -32.5t-40 -33t-38.5 -13.5q-15 4 -26.5 34.5t-17.5 73.5t-8 66t-3 40
q34 5 57 31.5t23 61.5q0 40 -28 67.5t-67 27.5t-67 -27.5t-28 -67.5q0 -26 13.5 -48.5t36.5 -34.5q-9 -23 -19.5 -46.5t-29.5 -52t-32 -28.5q-11 0 -24 16t-25.5 40.5t-19.5 41t-13 30.5q22 13 35 34.5t13 47.5q0 40 -28 67.5t-67 27.5t-67 -27.5t-28 -67.5q0 -30 18 -55
t46 -34q9 -4 18 -5q-1 -8 -2.5 -21t-7 -47.5t-11.5 -61t-17 -50t-23 -26.5q-16 -4 -39 11.5t-36 30t-24 29.5q40 28 40 78q0 39 -28 66.5t-67 27.5q-11 0 -23 -3q-44 -4 -61 -47q-11 -21 -11 -44q0 -32 20 -58q10 -16 27 -24q22 -13 48 -13q7 0 15 1q3 -25 8.5 -58t18 -91.5
t30.5 -97t37 -39.5q21 -1 488 -1q27 0 54 71.5t41 135.5t14 71l1 8h9q25 0 47 12q30 10 39 41q9 20 9 42q0 40 -29 68v0zM932 571z" />
    <glyph glyph-name="anli" unicode="&#xe68c;" 
d="M967 -160l-103 -24q-40 -10 -49.5 -4.5t-19.5 44.5l-10 39l214 51l7 -26q1 -6 4 -15q10 -37 4.5 -46t-47.5 -19zM649 398q-10 38 -4 47t46 19l103 24q40 10 49 6t16 -32l126 -464l-214 -51zM503 -191h-64q-44 0 -57.5 8.5t-13.5 46.5v803h206v-803q0 -39 -11 -47t-60 -8z
M368 736q0 38 13.5 46.5t57.5 8.5h64q45 0 58 -8.5t13 -46.5v-42h-206v42zM226 -191h-162q-41 0 -49 7.5t-8 47.5v46h276v-46q0 -40 -7.5 -47.5t-49.5 -7.5zM7 -15h276v-48h-276v48zM7 408h276v-396h-276v396zM7 532q0 39 8 46.5t49 7.5h162q42 0 49.5 -7.5t7.5 -46.5v-69
h-276v69z" />
    <glyph glyph-name="iconfontweibowukuang" unicode="&#xe6b8;" 
d="M727 341q-16 3 -20.5 9.5t-0.5 11.5l3 4q1 3 3 7t6 15.5t4.5 22.5t-4.5 25.5t-16 25.5q-14 14 -37 18.5t-46 1t-44 -9t-33 -11.5l-13 -5q-10 -3 -17 -4.5t-10.5 0t-5.5 3.5t-2 7.5t1 9t3 12.5t3 14q0 15 -2.5 27.5t-11 27t-23 22t-41 7t-62.5 -12.5q-35 -12 -71.5 -36
t-64 -49.5t-50 -49.5t-34.5 -40l-12 -15q-33 -44 -48.5 -87.5t-16.5 -65t0 -21.5q6 -48 30 -86.5t57 -62t78.5 -40t86.5 -24.5t88 -11q76 -6 157 11.5t151 61t99 103.5q17 36 17.5 67t-10.5 51t-29.5 35t-34 22t-27.5 9v0zM415 28q-110 -5 -188 42.5t-78 119.5t77.5 124
t188.5 57q112 5 188.5 -37t76.5 -113q0 -73 -78 -130.5t-187 -62.5v0zM385 307q-30 -3 -53.5 -13.5t-37 -23.5t-22.5 -30t-12.5 -30.5t-4.5 -28t-0.5 -19.5t0.5 -8v0v-5t2 -11.5t5.5 -16.5t12 -17t19.5 -15q67 -32 126 -19.5t94 58.5q14 17 18.5 42t-2 50.5t-22.5 47
t-48.5 33t-74.5 6.5v0zM348 116q-20 -2 -35 8t-15 27q0 18 14 32.5t34 16.5q23 2 37.5 -9t14.5 -29q0 -16 -14.5 -30t-35.5 -16v0zM435 189q-7 -5 -14.5 -4.5t-11.5 6.5t-2 14.5t9 13.5q8 6 15.5 5t11.5 -7q3 -7 1 -15t-9 -13v0zM798 400q9 0 16 6t8 14v3q4 32 -1 57
t-16.5 39t-26.5 23t-30.5 11.5t-28.5 3t-21 -0.5l-8 -1q-10 0 -17 -7t-7 -17t7 -17t17 -7q32 6 50.5 0.5t26 -19.5t9 -28t0.5 -25l-2 -11q0 -10 7 -17t17 -7v0zM781 679q-51 12 -121 -1l-1.5 -1l-1.5 -1h-1q-11 -3 -18.5 -12.5t-7.5 -21.5q0 -14 10.5 -24.5t25.5 -10.5
q18 3 31 8q6 0 18.5 1.5t33.5 -3.5t42 -13t43 -26.5t37 -43.5q28 -60 11 -115q-7 -17 -7 -34q0 -14 10 -22.5t25 -8.5t23 5.5t11 23.5v0q19 57 14.5 102.5t-20 79t-43.5 58t-56 39t-58 21.5v0zM781 679z" />
    <glyph glyph-name="baidu" unicode="&#xe602;" 
d="M184 272q27 6 46 20t28.5 33.5t15 37.5t6 40.5t0 32.5t-2.5 23q-5 39 -43 80t-87 37q-25 -3 -45 -18.5t-30 -33.5t-17.5 -41t-8.5 -31.5t-2 -14.5v0q-2 -18 -0.5 -42t13 -48.5t27 -43.5t42.5 -28t58 -3zM303 41q-12 -32 -5 -54q4 -13 11 -23t13.5 -14.5t14 -7.5
t10.5 -3.5t4 -0.5v0h59v143h-63q-18 -6 -29.5 -18t-14.5 -22zM391 496q46 0 78.5 46t32.5 111.5t-32.5 112t-78.5 46.5t-78.5 -46.5t-32.5 -112t32.5 -111.5t78.5 -46zM656 485q38 -5 71 18t51 56.5t23 69.5q8 49 -24 97.5t-76 58.5q-42 10 -87.5 -40.5t-50.5 -99.5
q-4 -41 2 -73t29 -57t62 -30zM857 94q-14 11 -37 30.5t-77 73.5t-87 101q-36 56 -81 79.5t-85 16.5t-73.5 -29t-52.5 -54q-21 -35 -51 -67t-54.5 -53t-26.5 -23t-15 -12t-28 -22.5t-33.5 -33.5t-30 -44t-18 -54t2.5 -65q9 -40 27.5 -68.5t36 -41.5t39 -20t28.5 -7.5t12 -0.5
q83 -9 178 13q49 9 88 8t64 -8l25 -6q5 -1 13 -3.5t32.5 -7.5t47.5 -7t53 0t55 10.5t47.5 28t35.5 48.5q17 41 19 78.5t-5 60.5t-20 44t-19 26.5t-10 8.5v0zM476 -119h-144q-29 5 -51 20t-29.5 25t-10.5 17q-20 48 -11 100q7 25 21 43.5t26.5 27.5t27.5 15t20.5 7t8.5 1v0
h77v95l65 -2v-349zM746 -118h-167q-18 4 -31.5 12.5t-20 16.5t-10.5 16.5t-4.5 12t-0.5 4.5v184l67 2v-166q2 -8 8.5 -13t12.5 -6l5 -2h69v186h72v-247zM982 373q0 15 -6.5 34.5t-19 41.5t-39 37t-60.5 15q-111 0 -111 -154q0 -24 1.5 -39.5t8.5 -37.5t19.5 -35.5
t37.5 -22.5t60 -9q20 1 36 5.5t27 14t19.5 19t13 24t8 24.5t4.5 26t1 23v20.5v13.5z" />
    <glyph glyph-name="kongxinaixin" unicode="&#xe65f;" 
d="M989 423q0 119 -81.5 203.5t-196.5 84.5q-57 0 -108.5 -23t-90.5 -65q-39 42 -91 65.5t-108 23.5q-115 0 -196.5 -84.5t-81.5 -204.5q0 -6 1 -14v-3q0 -43 20 -92q1 -1 1 -3l1 -1q22 -54 71.5 -118t97.5 -112t109.5 -100.5t88 -73t53.5 -40.5q3 -3 4 -3q13 -10 29.5 -10
t29.5 10l10.5 8.5t24.5 19t35.5 27.5t43.5 35t48.5 42t52 47.5t52 51.5t50 54.5t45.5 56t38 57.5q3 4 10 18q1 2 2 5h1q0 1 1 2q9 19 16 37q17 45 17 82v5q1 8 1 12zM912 418q0 -31 -15 -68q-5 -15 -13 -31q-1 0 -1 -1l-1 -1q0 -1 -0.5 -2.5t-1.5 -1.5q-5 -11 -8 -15
q-26 -45 -70 -97.5t-85 -93.5t-85.5 -81.5t-65.5 -57.5t-30 -25q-11 -8 -25 -8t-24 8q-11 8 -35.5 28.5t-73.5 66.5t-93.5 92.5t-87.5 105t-63 106.5q-1 0 -2 2q-16 42 -16 71v3q-1 8 -1 12q0 99 67 155t163 41q85 -12 167 -100q81 88 167 100q97 15 165 -39.5t68 -153.5
q0 -2 -1 -10q0 -1 0.5 -2.5t0.5 -2.5z" />
    <glyph glyph-name="icon107" unicode="&#xe609;" 
d="M752 -77h-481q-8 0 -16.5 -8.5t-13.5 -17.5l-4 -8v-35h550v35q0 14 -10 24t-25 10zM856 714h-688q-43 0 -73 -30.5t-30 -72.5v-482q0 -42 30 -72.5t73 -30.5h241v-34q0 -14 10 -24t24 -10h138q13 0 23.5 10.5t10.5 23.5v34h241q42 0 72.5 30.5t30.5 72.5v482
q0 42 -30.5 72.5t-72.5 30.5zM168 164q-14 0 -24 10t-10 24v413q0 14 10 24t24 10h688q14 0 24 -10t10 -24v-413q0 -14 -10 -24t-24 -10h-688zM855.5 59q-14.5 0 -25 10.5t-10.5 25.5t10.5 25.5t25 10.5t25 -10.5t10.5 -25.5t-10.5 -25.5t-25 -10.5zM762 558l-113 -113
l-79 79q-11 12 -28 9.5t-26 -17.5l-102 -178l-42 105q-7 18 -25 21.5t-31 -9.5l-103 -103q-11 -10 -11 -24.5t10.5 -24.5t24.5 -10t24 10l66 66l50 -123q8 -20 29 -21q2 -1 3 -1q20 0 30 18l115 201l71 -71q10 -10 24.5 -10t24.5 10l137 137q10 11 10 25t-10 24t-24 10
t-25 -10z" />
    <glyph glyph-name="weibiaoti1" unicode="&#xe63f;" 
d="M139 130h95q13 0 21.5 9t8.5 21v426q0 13 -8.5 21.5t-21.5 8.5h-95q-13 0 -22 -8.5t-9 -21.5v-426q0 -12 9 -21t22 -9zM445 130h96q12 0 21 13t9 31v623q0 18 -9 31t-21 13h-96q-12 0 -21 -13t-9 -31v-623q0 -18 9 -31t21 -13zM752 130h96q12 0 21 12t9 29v579
q0 16 -9 28.5t-21 12.5h-96q-12 0 -21 -12.5t-9 -28.5v-579q0 -17 9 -29t21 -12zM6 80h969v-50h-969v50z" />
    <glyph glyph-name="shuju" unicode="&#xe64d;" 
d="M617 736q46 -8 89 -26q73 -31 129 -87t87 -129q18 -43 26 -89h-331v331zM547 812v-477h477q0 97 -37.5 185.5t-101.5 152.5t-152.5 101.5t-185.5 37.5v0zM512 300v441l-71 -1q-121 -9 -222.5 -74.5t-160 -171.5t-58.5 -229q0 -97 37.5 -185.5t101.5 -152.5t152.5 -101.5
t185.5 -37.5q123 0 229 58.5t171.5 160t74.5 222.5l1 71h-441zM477 -141q-111 0 -204.5 54t-147.5 147.5t-54 204.5q0 104 49 194t134 145.5t187 64.5v-440h440q-9 -102 -64.5 -187t-145.5 -134t-194 -49z" />
    <glyph glyph-name="icon" unicode="&#xe612;" horiz-adv-x="1134" 
d="M1095 237l-367 -115l-452 396l350 -427l-392 -125l-202 802zM639 29v-221l-129 182l129 39v0z" />
    <glyph glyph-name="duihao" unicode="&#xe6bd;" horiz-adv-x="1415" 
d="M1269 812l-734 -734l-390 390l-145 -145l535 -535l879 879z" />
    <glyph glyph-name="yonghu" unicode="&#xe6ce;" 
d="M502 749q95 0 161.5 -65.5t66.5 -158.5t-66.5 -159t-161 -66t-161 66t-66.5 159t66.5 158.5t160.5 65.5v0zM502 749q95 0 161.5 -65.5t66.5 -158.5t-66.5 -159t-161 -66t-161 66t-66.5 159t66.5 158.5t160.5 65.5v0zM417 226h190q122 0 208 -85t86 -205v-19
q0 -15 -9.5 -26.5t-31 -18.5t-44.5 -11t-61.5 -6t-68.5 -2.5t-79 -0.5h-190q-53 0 -79.5 0.5t-68 2t-62 5.5t-43.5 11t-32 19t-9 27v19q0 120 86 205t208 85v0zM417 226z" />
    <glyph glyph-name="friends" unicode="&#xe6b9;" 
d="M514 820q-25 0 -51 -3q-59 -7 -116 -30q301 -297 309 -308v317l-27 9q-57 15 -115 15v0zM828 690q-18 18 -38 34q-47 38 -102 61q2 -423 0 -437l224 225q-6 12 -13 25q-30 52 -71 92v0zM927 538q-298 -301 -309 -309h317q5 13 9 27q15 57 15 115q0 25 -3 51
q-7 60 -29 116v0zM485 195l225 -224q13 6 25 13q51 30 92 71q17 17 34 38q37 47 61 102q1 0 -23.5 0h-61.5h-83t-91.5 -0.5t-84.5 -0.5t-64.5 0.5t-28.5 0.5v0zM370 266v-318q13 -4 27 -8q57 -15 115 -15q25 0 51 3q60 6 116 29l-17 16.5t-43.5 43t-59 58.5t-65 64.5l-60 60
t-45.5 46t-19 20.5v0zM338 398l-225 -224q6 -12 14 -25q29 -52 71 -93q17 -17 37 -33q48 -38 103 -61q0 -1 -0.5 109.5t-0.5 207.5t1 119v0zM82 488q-15 -57 -15 -115q0 -25 3 -51q7 -60 29 -115q298 301 309 308h-317q-5 -12 -9 -27v0zM289 758q-51 -29 -92 -70
q-17 -17 -34 -38q-37 -47 -61 -103h437l-225 225q-13 -7 -25 -14v0z" />
    <glyph glyph-name="shipin" unicode="&#xe61a;" 
d="M944 554q-10 6 -54 -9.5t-83 -33.5l-40 -19v8q0 50 -35 84.5t-85 34.5h-462q-50 0 -85 -34.5t-35 -84.5v-400q0 -50 35 -84.5t85 -34.5h462q50 0 85 34.5t35 84.5v9q2 0 5.5 -2t14.5 -7t21.5 -9.5t26 -11t27.5 -11.5t27 -10.5t24.5 -7.5t19 -3.5t11.5 1.5q15 9 15 252.5
t-15 253.5zM320 108v384l304 -191z" />
    <glyph glyph-name="yonghuming" unicode="&#xe600;" 
d="M214 -197h-1v0v0h1zM1020 -165q4 -8 4 -15q0 -13 -9.5 -22.5t-23 -9.5t-23 9.5t-9.5 22.5h-1q-34 152 -159 252t-287 100t-287 -100t-159 -252h-1q0 -13 -9.5 -22.5t-23 -9.5t-23 9.5t-9.5 22.5q0 7 4 15q30 134 124.5 235.5t227.5 142.5q-77 41 -123.5 115.5
t-46.5 163.5q0 87 43.5 160.5t118.5 116.5t164 43t164 -43t118.5 -116.5t43.5 -160.5q0 -89 -46.5 -163.5t-123.5 -115.5q133 -41 227.5 -142.5t124.5 -235.5v0zM773 492q0 106 -76.5 181t-184.5 75t-184.5 -75t-76.5 -181t76.5 -181t184.5 -75t184.5 75t76.5 181v0z" />
    <glyph glyph-name="jikediancanicon16" unicode="&#xe616;" 
d="M413 482l-95 -96q40 -89 114.5 -166t161.5 -106l81 81q194 -34 238 -55q54 -26 44 -109q-2 -22 -17 -50t-39 -56.5t-63.5 -47.5t-84.5 -20q-96 -1 -222.5 65t-225.5 171q-73 76 -126 151.5t-85.5 162t-23.5 159.5q5 43 23.5 76.5t40 52t47.5 31t43 16.5t31 5q51 4 80 -32
q12 -14 31.5 -72.5t32.5 -109.5l14 -51v0zM306 684q-23 29 -70 17q-12 -3 -28.5 -11t-38 -23.5t-37.5 -43t-21 -61.5q-10 -84 48.5 -207t164.5 -225q224 -218 405 -233q41 -3 77.5 11.5t58.5 38t34.5 43.5t16.5 35q6 24 1.5 45.5t-17.5 31.5q-22 16 -211 50l-86 -85
q-107 35 -197.5 125t-132.5 207l94 94v0q-46 170 -61 191v0zM306 684z" />
    <glyph glyph-name="msnui-data-supervise" unicode="&#xe723;" 
d="M673 69q0 8 -5.5 14t-13.5 6h-275q-8 0 -14 -6t-6 -14v-78h-196v-59h707v59h-197v78zM909 835h-785q-25 0 -42 -17.5t-17 -41.5v-550q0 -24 17 -41.5t42 -17.5h785q24 0 41.5 17.5t17.5 41.5v550q0 24 -17.5 41.5t-41.5 17.5v0zM909 246q0 -8 -5.5 -14t-14.5 -6h-746
q-8 0 -13.5 6t-5.5 14v510q0 8 5.5 14t13.5 6h746q9 0 14.5 -6t5.5 -14v-510v0zM693 305h98v255h-98v-255zM536 305h98v334h-98v-334zM242 305h98v98h-98v-98zM379 305h98v177h-98v-177zM379 305z" />
    <glyph glyph-name="xin" unicode="&#xe684;" 
d="M705 748q-57 0 -108 -27.5t-87 -75.5q-35 48 -86.5 75.5t-108.5 27.5q-104 0 -178 -81t-74 -194q0 -42 13 -84t25.5 -64t34.5 -57q27 -41 72 -91.5t85.5 -89t87.5 -79t66 -55.5t31 -25q14 -11 32 -11t32 11q12 10 31 25t66 55t87.5 79t85.5 89.5t72 91.5q22 35 34.5 57
t25.5 64t13 84q0 113 -74 194t-178 81v0zM838 303q-25 -39 -68 -87t-86.5 -88.5t-83.5 -75t-65 -54.5l-25 -20q-10 8 -26.5 21t-62.5 52.5t-85.5 77t-84 86.5t-69.5 88q-21 33 -32 53.5t-21 52.5t-10 64q0 88 57.5 150.5t138.5 62.5q59 0 107 -35t71 -92v1v0q4 -14 17 -14
t17 14v0q23 56 71.5 91t106.5 35q81 0 138.5 -62.5t57.5 -150.5q0 -46 -16 -83.5t-47 -86.5v0zM838 303z" />
    <glyph glyph-name="duanxin" unicode="&#xe664;" 
d="M957 599v0.5v0.5v0q-3 7 -9 12q-1 0 -2 1q-7 5 -14 5h-841q-6 0 -13 -5q-2 -1 -3 -1q-6 -5 -9 -12v0v-0.5v-0.5q-2 -5 -2 -8v-578q0 -12 8 -19.5t19 -7.5h421h420q11 0 19 7.5t8 19.5v578q0 3 -2 8zM858 564l-251 -213v0v0l-95 -81l-347 294h693zM512 40h-394v492
l242 -204l-152 -171q-7 -8 -6.5 -19t9.5 -19q7 -7 18 -7q12 0 20 9l152 172l93 -79q8 -7 17.5 -7t17.5 7l93 79l152 -172q8 -9 21 -9q10 0 17 7q9 8 9.5 19t-6.5 19l-152 171l242 204v-492h-393z" />
    <glyph glyph-name="shishang" unicode="&#xe642;" 
d="M921 -17h-410q-15 0 -26 11t-11 26v34q-10 12 -43 65t-57 76q-18 16 -52 28t-81.5 24.5t-73.5 22.5l-16 -214q25 -9 25 -36q0 -15 -10.5 -26t-26.5 -11h-37q-16 0 -26.5 11t-10.5 26q0 26 23 35l-20 275q-1 14 6 24q-19 55 -3 136q20 108 119 127q28 5 50 2
q6 -12 17.5 -32.5t51.5 -73t85 -92.5q64 -57 126 -86l13 28q13 26 41.5 36.5t56.5 -1.5l67 -30q28 -12 39 -39t-1 -54l-5 -10l21 -11q14 -10 35.5 -26.5t65.5 -59t62 -72.5h6q15 0 26 -11t11 -27v-38q0 -15 -11 -26t-26 -11zM661 330l-35 15q-15 7 -30 1.5t-22 -19.5
l-16 -34q-6 -14 -0.5 -28t20.5 -21l35 -15q15 -6 30 -1t22 19l16 34q6 14 0.5 28.5t-20.5 20.5z" />
    <glyph glyph-name="person" unicode="&#xe634;" 
d="M614 128q-1 20 -1 86q12 6 27.5 38t18.5 62q12 1 22.5 14t14 43.5t-15.5 42.5q7 21 12.5 46.5t7.5 61.5t-4.5 65t-29.5 52t-61 28q-21 36 -95 36q-66 -1 -108.5 -24.5t-58.5 -64.5t-15.5 -90.5t16.5 -109.5q-19 -12 -15.5 -42.5t14 -43.5t22.5 -14q3 -30 19 -62t29 -38
q0 -66 -2 -86q-9 -22 -34 -39.5t-56 -28t-66 -26.5t-64.5 -34t-50 -50.5t-22.5 -76.5h788q-2 44 -22.5 76.5t-49.5 50.5t-64 34t-66 26.5t-56 28t-34 39.5z" />
    <glyph glyph-name="mima" unicode="&#xe601;" 
d="M500 207h24q14 0 24.5 -10.5t10.5 -24.5v-163q0 -14 -10.5 -24.5t-24.5 -10.5h-24q-14 0 -24.5 10.5t-10.5 24.5v163q0 14 10.5 24.5t24.5 10.5zM884 323v-419q0 -19 -13.5 -32.5t-32.5 -13.5h-652q-19 0 -32.5 13.5t-13.5 32.5v419h744zM954 393h-884v-489q0 -48 34 -82
t82 -34h652q48 0 82 34t34 82v489v0zM861 393h-70v70q0 116 -83 197.5t-196 81.5q-114 0 -196.5 -82.5t-82.5 -196.5v-70h-70v70q0 93 47 174t127.5 128t174.5 47q93 0 173 -45.5t128 -126.5t48 -177v-70z" />
    <glyph glyph-name="wodeshoucang" unicode="&#xe635;" 
d="M511 527q-24 53 -65 87t-86.5 44t-93 -1t-85 -41t-61.5 -83t-24 -120q0 -45 30 -98.5t75.5 -100t98.5 -94t99 -82.5t78 -62.5t35 -38.5q2 11 34 39t78 63.5t99 83t98 94.5t75 100t30 98q0 65 -23 116.5t-59 81t-82.5 40.5t-92 2t-88 -42.5t-70.5 -85.5z" />
    <glyph glyph-name="xinwen1" unicode="&#xe644;" 
d="M649 107h-365q-9 0 -15.5 6.5t-6.5 16t6.5 16t15.5 6.5h365q9 0 15.5 -6.5t6.5 -16t-6.5 -16t-15.5 -6.5zM649 220h-365q-9 0 -15.5 7t-6.5 16.5t6.5 16t15.5 6.5h365q9 0 15.5 -6.5t6.5 -16t-6.5 -16.5t-15.5 -7zM375 448q-9 0 -15.5 6.5t-6.5 16t6.5 16t15.5 6.5h183
q9 0 15.5 -6.5t6.5 -16t-6.5 -16t-15.5 -6.5h-183zM671 356.5q0 -9.5 -6.5 -16t-15.5 -6.5h-365q-9 0 -15.5 6.5t-6.5 16t6.5 16.5t15.5 7h365q9 0 15.5 -7t6.5 -16.5zM853 -53h-682q-29 0 -49 20t-20 49v568q0 29 20 49t49 20h341h205h68q19 0 32.5 -13.5t13.5 -32.5v-318
v-75v-130q0 -10 -7 -16.5t-16.5 -6.5t-16 6.5t-6.5 16.5v136v69v273q0 19 -13.5 32t-31.5 13h-274h-68h-205q-18 0 -31.5 -13t-13.5 -32v-524q0 -19 13.5 -32t31.5 -13h569h46h23q18 0 31.5 13t13.5 32v524q0 9 6.5 15.5t16 6.5t16.5 -6.5t7 -15.5v-524v-22q0 -29 -20 -49
t-49 -20z" />
    <glyph glyph-name="bianji" unicode="&#xe6aa;" 
d="M803 -212h-659q-46 0 -78 32t-32 78v733q0 46 32 78t78 32h513q22 0 31 -18.5t0 -36.5t-31 -18h-513q-15 0 -26 -11t-11 -26v-733q0 -15 11 -26t26 -11h659q15 0 26 11t11 26v586q0 23 18.5 32t36.5 0t18 -32v-586q0 -46 -32 -78t-78 -32v0zM562 385q-23 26 0 52l364 365
q11 10 26 10t27 -10q19 -21 5 -45l-5 -8l-364 -364q-12 -11 -27 -11t-26 11v0zM437 374h-220q-22 0 -31 18.5t0 37t31 18.5h220v-74v0zM657 155h-440q-22 0 -31 18t0 36.5t31 18.5h440q22 0 31 -18.5t0 -36.5t-31 -18z" />
    <glyph glyph-name="phone-line" unicode="&#xe6ed;" 
d="M900 115q6 -6 13 -11q29 -24 41 -38v0v0v0q3 -4 5 -6q2 -3 4 -4q0 -1 1 -2q1 -2 2 -3l6 -9v-1q15 -30 -4 -71q-18 -39 -57 -75q-81 -75 -154 -75q-11 0 -21 2q-74 9 -198 78q-133 73 -232.5 167.5t-176.5 220.5q-73 118 -83 189q-6 46 21 96q25 44 70 81q1 1 3 2.5t2 2.5
q42 34 75 46q17 8 32 8t30 -6v-1q5 -2 13 -6q35 -17 70 -64q23 -31 40 -59q21 -36 35 -68l1 -1l2 -7q14 -36 -14 -62q0 -1 -2 -3l-1 -1l-1 -1q-1 0 -3 -2q-4 -3 -5 -4h-1q-11 -8 -19 -12l-12 -8h-1q-11 -6 -32 -15q-19 -7 -31 -13q-11 -6 -14.5 -20.5t0.5 -19.5
q31 -68 122 -155q63 -60 157 -113q8 -5 17 -5q11 0 22 7.5t17 17.5q5 10 15 29l10 20v0q10 18 18 30q5 7 8 10q11 16 30 22q10 4 22 4q16 0 27 -6l21 -10v0q1 -1 4 -3q5 -2 10 -6q16 -10 33 -21q3 -2 7 -5zM720 153q-6 -7 -20 -32q-3 -5 -10 -18q-10 -20 -16 -31
q-10 -18 -30.5 -32t-43.5 -14q-20 0 -37 10q-98 56 -165 119q-97 92 -131 168q-10 22 -3 48q9 32 36 46q14 6 34 14q18 7 26 12t14 9q7 3 16 9l2 2q3 2 4 3l2 2v0q8 8 4 18l-1 1l-2 7q-13 30 -32 62q-16 26 -38 55q-28 39 -54 52h-1l-12 6q-6 3 -13 3t-17 -4l-1 -1
q-26 -9 -63 -40q-4 -3 -5 -4q-39 -32 -60 -70.5t-16 -69.5q9 -63 77 -174q74 -121 170 -211.5t224 -161.5q117 -65 183 -74q8 -1 16 -1q57 0 127 65q33 30 47 61q5 10 6 21t-2 16l-4 5v0v1q-3 3 -8 9q-11 12 -36 33q-40 33 -73 55q-26 17 -43 28l-20 9q-3 2 -9 2q-5 0 -9 -1
q-7 -3 -10 -8z" />
    <glyph glyph-name="quanweirenzheng" unicode="&#xe6af;" 
d="M513.5 -146q-91.5 0 -174.5 35.5t-143 95.5t-95.5 143t-35.5 174t35.5 174t95.5 143t143 95.5t174.5 35.5t174.5 -35.5t143 -95.5t95 -143t35 -174t-35 -174t-95 -143t-143 -95.5t-174.5 -35.5zM663 526l-280 -418v417l-168 1v-54h74v-469h150l373 523h-149z" />
    <glyph glyph-name="biaoti" unicode="&#xe630;" 
d="M512 -79l-109 61l-111 -57h-6q-40 0 -68 28t-28 67v563q0 39 28 67t68 28h452q40 0 68 -28t28 -67v-563q0 -39 -28 -67t-68 -28h-6l-99 57zM286 627q-19 0 -32 -13t-13 -31v-563q0 -17 11 -29.5t28 -14.5l124 65l109 -62l121 62l111 -65q16 3 27 15.5t11 28.5v563
q0 18 -13 31t-32 13h-452zM676 489h-321q-10 0 -17.5 7.5t-7.5 18.5t7.5 18.5t17.5 7.5h321q11 0 18.5 -7.5t7.5 -18.5t-7.5 -18.5t-18.5 -7.5zM676 305h-321q-10 0 -17.5 7.5t-7.5 18t7.5 18t17.5 7.5h321q11 0 18.5 -7.5t7.5 -18t-7.5 -18t-18.5 -7.5zM676 121h-321
q-10 0 -17.5 7.5t-7.5 18t7.5 18t17.5 7.5h321q11 0 18.5 -7.5t7.5 -18t-7.5 -18t-18.5 -7.5z" />
    <glyph glyph-name="help" unicode="&#xe636;" 
d="M512 -224q139 0 257 68.5t186.5 186.5t68.5 257t-68.5 257t-186.5 186.5t-257 68.5t-257 -68.5t-186.5 -186.5t-68.5 -257t68.5 -257t186.5 -186.5t257 -68.5zM538 -65h-99v96h99v-96zM451 111v37q-3 94 78 157q87 67 81 131q-9 93 -99 100q-105 3 -132 -134l-87 24
q39 204 234 197q165 -10 180 -177q6 -104 -108 -184q-72 -50 -69 -121v-30h-78z" />
    <glyph glyph-name="wancheng" unicode="&#xe60a;" 
d="M522.5 744q-91.5 0 -175 -35.5t-144 -96t-96.5 -144t-36 -175.5t36 -175.5t96.5 -144t144 -96t175 -35.5t175.5 35.5t144.5 96t96 144t35.5 175.5t-35.5 175.5t-96 144t-144.5 96t-175.5 35.5zM522.5 -89q-103.5 0 -191.5 51t-139 139t-51 192t51 192t139 139t191.5 51
t191.5 -51t139.5 -139t51.5 -192t-51.5 -192t-139.5 -139t-191.5 -51zM732 473.5q-11 9.5 -25.5 8t-23.5 -12.5l-247 -297l-128 119q-11 10 -25.5 9.5t-24 -11t-9 -25t10.5 -24.5l155 -144q10 -9 24 -9h2q15 1 25 12l270 325q9 12 8 26t-12 23.5z" />
    <glyph glyph-name="xiaochimianshi" unicode="&#xe67e;" 
d="M324 424l13 -44q23 11 37.5 25t20 30.5t6.5 26t1 23.5v159q0 32 45 51v48q-90 -29 -90 -99v-159q0 -14 -1 -22t-9 -19.5t-23 -19.5zM226 424l13 -44q23 11 37.5 25t20 30.5t6.5 26t1 23.5v159q0 32 44 51v48q-89 -29 -89 -99v-159q0 -14 -1 -22t-9 -19.5t-23 -19.5z
M140 380q23 11 38 25t20.5 30.5t6.5 26t1 23.5v159q0 32 44 51v48q-89 -29 -89 -99v-159q0 -14 -1 -22t-9 -19.5t-23 -19.5zM81 660h47v-47h-47v47zM447 660h493v-47h-493v47zM447 562h493v-47h-493v47zM81 562h47v-47h-47v47zM65 366v-64v-57v-20q0 -102 58.5 -184
t152.5 -116v-68h472v68q93 34 152 116t59 184v20v57v64h-894z" />
    <glyph glyph-name="yule" unicode="&#xe628;" 
d="M761 600q-30 32 -52.5 52t-54 41t-59 27t-61 -1.5t-65.5 -32.5q-18 -14 -52.5 -55t-63.5 -58q-25 -15 -73.5 -21.5t-66.5 -13.5q-65 -24 -92.5 -59.5t-25 -83t15.5 -112.5q7 -32 15 -63.5t25 -82.5t35.5 -88.5t45.5 -67t56 -32.5q36 -3 61 26t35 67t23.5 81.5t26.5 60.5
q27 33 90.5 70t107.5 47q24 6 65 -2t76 -18.5t73 -10t59 20.5q15 13 20.5 31t1 39t-12 41t-24 44t-29.5 42t-33.5 41t-31 34t-26.5 28zM349 243q-40 -23 -85 -11t-68 52t-11 84.5t52 67.5t84.5 11t68 -52t11.5 -84.5t-52 -67.5zM547.5 594q3.5 13 15.5 19.5t25 3t19.5 -15
t3 -24.5t-15 -20t-24.5 -3.5t-20 15.5t-3.5 25zM548 468.5q-13 3.5 -19.5 15.5t-3 25t15 20t24.5 3.5t20 -15.5t3.5 -25t-15.5 -20t-25 -3.5zM670.5 470q-3.5 -13 -15.5 -20t-25 -3.5t-19.5 15.5t-3 25t15 20t24.5 3.5t20 -15.5t3.5 -25zM692.5 555q-3.5 -13 -15 -20
t-24.5 -3.5t-20 15.5t-3.5 25t15.5 20t25 3.5t19.5 -15.5t3 -25zM260.5 396.5q-23.5 -13.5 -31 -40t6.5 -50t40 -30.5t49.5 6.5t30.5 40t-6.5 50t-39.5 30.5t-49.5 -6.5z" />
    <glyph glyph-name="fenxiang" unicode="&#xe685;" horiz-adv-x="1304" 
d="M1118 294q-14 0 -24 -10t-10 -24v-321q0 -31 -22 -52.5t-53 -21.5h-716q-31 0 -53 21.5t-22 52.5v674q0 31 22 53t53 22h234q14 0 23.5 10t9.5 24t-9.5 24t-23.5 10h-234q-59 0 -100.5 -42t-41.5 -101v-674q0 -59 41.5 -100.5t100.5 -41.5h716q59 0 101 41.5t42 100.5
v321q0 14 -10 24t-24 10v0zM406 95q-3 -14 5 -25.5t22 -13.5q3 -1 6 -1q12 0 21.5 8t11.5 20q3 15 10.5 44t38.5 104t72 138q83 124 197 195q108 68 244 84l-111 -114q-10 -11 -9.5 -25t10.5 -23q10 -10 24 -10t24 10l171 177v0q1 0 1 1v0h1v1v0l0.5 0.5l0.5 0.5v0q0 1 1 1
v0.5v0.5v0l1 1v0v0.5v0.5l1 1v0v0v0.5t0.5 1l0.5 0.5v1l0.5 0.5l0.5 0.5v1v1v0v1q1 0 1 0.5v0.5v0v1v1v0v1v0v1v0l1 1v0v1v0v0v0v1v0v0v2v0v1v0l-1 1v0v0v0v1v1v0v1v0v0v0v1v0.5t-1 0.5v1v1v0v1v0l-1 1v0v1v0v0v0l-1 1v0q0 1 -1 2v0q0 1 -1 1v1v0v0v0v1h-1v0v1v0l-1 1v0v0
l-0.5 0.5l-0.5 0.5v0l-1 1v0q-1 1 -1 2h-1l-1 1v0l-1 1v0h-1v1h-1v0l-1 1v0h-0.5h-0.5l-0.5 0.5l-0.5 0.5h-0.5t-1 0.5t-1 0.5h-1h-0.5q0 1 -1 1v0l-249 82q-14 5 -26.5 -1.5t-17 -19.5t2 -26t19.5 -17l100 -33q-110 -24 -204 -82q-127 -79 -217 -216q-29 -43 -53 -90.5
t-37 -82.5t-23.5 -70t-13.5 -47.5t-4 -20.5v0zM406 95z" />
    <glyph glyph-name="qq01" unicode="&#xe617;" 
d="M512 561q-84 0 -143 -72q-61 -73 -64 -182q0 -5 -2 -9v0q-8 -12 -8 -14q-1 -1 -4 -6.5t-5 -8.5q-16 -34 -20 -70q-4 -26 3 -33v0q0 1 1 1q6 3 15 11q6 6 11 14q4 5 11 6.5t12 -2.5q5 -5 6 -8v0q5 -13 14 -31q8 -16 17 -29q4 -6 3 -13t-7 -10l-5 -3q-17 -6 -27 -15
q-7 -7 -7 -12q0 -12 26 -24q32 -15 79 -15q26 0 50 5q23 5 37 14q10 5 18 0q16 -9 37 -14q22 -5 50 -5q46 0 79 15q25 12 25 24q0 5 -6 12q-11 9 -28 15q-16 6 -10 22v1l1 2v0q2 3 18 29q6 10 14 31q2 7 8.5 10t12.5 0q7 -3 9 -6q6 -8 10 -12q8 -10 15 -12l1 -1v0q6 6 3 33
q-4 34 -20 69h-1q-6 13 -8 15q-2 3 -5 8.5l-3 5.5q-2 5 -2 9q-3 107 -64 182q-66 73 -147 73v0zM343 511q69 85 169 85t169 -85q67 -82 71 -198q6 -11 7 -12q1 -2 3 -5t3.5 -6t2.5 -6q0 -1 1 -1q20 -41 23 -79q6 -44 -13 -61q0 -1 -1.5 -1.5t-1.5 -1.5q-14 -10 -33 -3
q-12 5 -22 15q-3 -7 -5 -9q-1 -3 -4 -8t-4 -8q11 -5 21 -15q17 -17 17 -36q0 -33 -44 -55q-39 -17 -92 -17q-31 0 -57 7q-22 4 -39 13q-15 -8 -39 -13q-28 -7 -58 -7q-53 0 -92 17q-44 20 -44 55q0 19 17 36q10 9 21 15q-5 7 -9 16q0 1 -2 4.5t-3 5.5q-10 -10 -21 -15
q-19 -8 -33 3q-1 1 -2 1.5t-1 1.5q-19 17 -14 61q4 38 24 79l9 18q6 8 8 11q1 55 21 109.5t47 88.5zM268 167v0v0zM756 167v0v0z" />
    <glyph glyph-name="dianhua" unicode="&#xe69a;" 
d="M922 70q0 -110 -69 -132t-341 -22t-341 22t-69 132q0 50 21 115.5t59.5 132t88 123t113.5 92.5t128 36t128 -36t113.5 -92.5t88 -123t59.5 -132t21 -115.5v0v0zM512 498q-72 0 -122.5 -50t-50.5 -122t50.5 -122.5t122.5 -50.5t122.5 50.5t50.5 122.5t-50.5 122t-122.5 50
v0v0zM154 370q28 47 62.5 86.5t79.5 75t100.5 55.5t115.5 20q59 0 117 -22t103.5 -58t80 -76t57.5 -81q25 -37 60.5 -35.5t55.5 35.5q5 9 8.5 28.5t0.5 49.5t-16 62t-47 64.5t-84.5 58t-137.5 41.5t-198 16q-87 0 -159.5 -10t-122 -27t-87.5 -40t-59 -48t-35 -51
t-17.5 -49.5t-3.5 -43.5t3.5 -33t6.5 -18q18 -23 44 -27.5t45.5 5t26.5 22.5v0v0z" />
    <glyph glyph-name="jiadianyuedu" unicode="&#xe657;" 
d="M348 610q87 0 158 -49l33 46q-86 60 -191 60v-57v0zM397 -106q53 0 101 -19q11 -4 22 0.5t15 15.5t-0.5 22t-15.5 15q-59 23 -122 23q-12 0 -20.5 -8t-8.5 -20t8.5 -20.5t20.5 -8.5v0zM668 666q-105 0 -191 -59l33 -47q71 50 158 50v56v0zM620 -49q-63 0 -122 -23
q-11 -4 -15.5 -15t-0.5 -22t15 -15.5t22 -0.5q48 19 101 19q11 0 19.5 8.5t8.5 20t-8.5 20t-19.5 8.5v0zM480 593v-684h56v684h-56v0zM150 404l158 6q12 1 20 9.5t7.5 20.5t-9 20t-20.5 7l-159 -6q-11 -1 -19 -9.5t-7.5 -20.5t9 -20t20.5 -7v0zM308 410q58 0 106 -33
q10 -7 21.5 -5t18 11.5t4.5 21.5t-12 18q-62 44 -138 44q-12 0 -20.5 -8.5t-8.5 -20.5t8.5 -20t20.5 -8v0zM151 125l158 7q12 0 20 9t7.5 20.5t-9 19.5t-20.5 8l-158 -7q-12 0 -20 -8.5t-7.5 -20.5t9 -20t20.5 -8v0zM316 132q53 0 101 -19q11 -5 22 0t15.5 16t-0.5 21.5
t-16 15.5q-59 23 -122 23q-12 0 -20.5 -8.5t-8.5 -20.5t8.5 -20t20.5 -8v0zM868 459l-158 6q-12 1 -20.5 -7t-9 -20t7.5 -20.5t20 -9.5l158 -6q12 -1 20.5 7t9 20t-7.5 20.5t-20 9.5v0zM708 465q-76 0 -139 -44q-9 -6 -11 -18t4.5 -21.5t18 -11.5t21.5 5q48 33 106 33
q12 0 20 8t8 20t-8 20.5t-20 8.5v0zM396 -49l-317 -4q11 0 19 -7.5t8 -18.5v702q0 -11 -7.5 -18.5t-18.5 -7.5l270 13q11 1 19 9.5t7.5 20.5t-9 19.5t-20.5 7.5l-269 -13q-11 0 -20 -9t-9 -22v-702q0 -13 9 -22t22 -9l317 4q12 1 20 9.5t8 20t-8.5 20t-20.5 7.5v0zM619 -106
l317 -4q13 0 22 9t9 22v702q0 13 -9 22t-21 9l-268 13q-11 0 -20 -7.5t-9.5 -19.5t7.5 -20.5t20 -9.5l268 -13q-10 0 -17.5 7.5t-7.5 18.5v-702q0 11 8 18.5t19 7.5l-317 4q-12 1 -20.5 -7.5t-8.5 -20t8 -20t20 -9.5v0z" />
    <glyph glyph-name="dianshang" unicode="&#xe672;" 
d="M512.5 752q-91.5 0 -175 -36t-143.5 -96t-95.5 -143.5t-35.5 -174.5t35.5 -174.5t95.5 -143.5t143.5 -96t175 -36t174.5 36t143.5 96t96 143.5t35.5 174.5t-35.5 174.5t-96 143.5t-143.5 96t-174.5 36zM512.5 -93q-107.5 0 -198.5 53t-144 144t-53 198q0 137 85 245
q0 -10 5 -18q7 -9 18 -11l51 -9l56 -294l-33 -99v0l-2 -6q-1 -2 -1 -4q-1 -2 -1 -4v-1v-1l2 -6t1 -4q1 -2 3 -5l3 -3l2 -2q2 -2 4 -2l4 -2v0v-2h480l9 1v1q19 6 19 26q0 12 -8 20t-20 8h-428l19 68q5 8 4 19v1l-64 321l-1 9h-2q-5 8 -14 11l-74 14l-8 1q55 58 129 90.5
t157 32.5q108 0 199 -53t144 -144t53 -198t-53 -198t-144 -144t-198.5 -53zM425.5 56q-17.5 0 -30.5 -12.5t-13 -30.5t13 -30.5t30.5 -12.5t30 12.5t12.5 30.5t-12.5 30.5t-30 12.5zM686 56q-18 0 -30.5 -12.5t-12.5 -30.5t12.5 -30.5t30.5 -12.5t30.5 12.5t12.5 30.5
t-12.5 30.5t-30.5 12.5zM834 451v1v1q-1 5 -5 10q-2 4 -5 6q-1 1 -3 2q-3 2 -5 2q-2 1 -3 2h-430h-9v-1q-18 -7 -18 -26.5t18 -26.5v-1h394l-57 -186h-258h-9v-2q-19 -6 -19 -26t19 -26v-2h280l5 1q16 -2 25 13h1l77 244q0 1 1 2l4 13h-3z" />
    <glyph glyph-name="nan1" unicode="&#xe6c5;" horiz-adv-x="1025" 
d="M460.5 416q-71.5 0 -122 -50.5t-50.5 -121.5t50.5 -121.5t122 -50.5t122 50.5t50.5 121.5t-50.5 121.5t-122 50.5zM854 812h-683q-71 0 -121 -50t-50 -121v-682q0 -71 50 -121t121 -50h683q70 0 120 50t50 121v682q0 71 -50 121t-120 50zM818 373h-81v92l-72 -71
q49 -67 49 -150q0 -105 -74.5 -179.5t-179.5 -74.5t-179 74.5t-74 179.5t74 179.5t179 74.5q81 0 147 -47l77 77h-104v82h238v-237v0z" />
    <glyph glyph-name="shouye" unicode="&#xe631;" horiz-adv-x="1025" 
d="M389 806q-113 -94 -191.5 -168.5t-175.5 -180.5q-15 -21 -20 -50.5t1 -50.5t19 -21h122v-304q0 -121 53 -121h190v303h243v-303h175q30 0 49 29t19 92v304h122q10 0 17.5 9t10 23.5t1 30.5t-9 32t-19.5 27q-156 158 -384 345q-50 39 -89 50.5t-69 -0.5t-64 -46z" />
    <glyph glyph-name="xingzhuang13" unicode="&#xe69d;" 
d="M705 453h-413v249h82q11 44 46.5 77t79.5 33t78 -32.5t45 -77.5h82v-250v1v0v0zM650 508v140h-83v34q0 30 -19.5 52.5t-47.5 22.5t-50 -23t-22 -52v-34h-84l1 -140v0h305zM793 -212h-562q-67 0 -114.5 48t-47.5 115v565q0 67 47.5 113t114.5 46h114v-167h306l-1 167h143
q67 0 114.5 -46t47.5 -113v-565q0 -67 -47.5 -115t-114.5 -48v0v0zM231 619q-43 0 -76 -30.5t-33 -72.5v-565q0 -42 33.5 -74.5t75.5 -32.5h562q42 0 73.5 32t31.5 75v565q0 42 -31 72.5t-74 30.5h-88v-166h-413v166h-61v0v0zM495 -13q-10 0 -18 7l-165 133q-10 8 -11.5 20
t6.5 22t20 11.5t22 -6.5l139 -112l214 337q6 11 18 13.5t22.5 -4t13.5 -18.5t-4 -23l-231 -366q-8 -11 -21 -13q-2 -1 -5 -1v0v0z" />
    <glyph glyph-name="yanchangzhe" unicode="&#xe621;" 
d="M534 114h7q58 0 96 43.5t38 110.5v379q0 69 -39 117t-95 48h-7q-57 0 -97.5 -48.5t-40.5 -116.5v-378q0 -67 39.5 -111t98.5 -44zM442 658q0 44 27 75.5t65 31.5h8q37 0 61.5 -30.5t24.5 -76.5v-401q0 -43 -24 -70t-62 -27h-8q-40 0 -66 27t-26 70v401zM837 440
q-22 0 -22 -47v-140q0 -139 -61.5 -209t-171.5 -70h-93q-55 0 -96 17t-67 45.5t-42 71t-22 88.5t-6 104v93q0 47 -22 47q-25 0 -25 -32v-133q0 -168 71 -257.5t208 -89.5h1v-93h-153q-14 0 -23.5 -7t-9.5 -16.5t9.5 -16.5t23.5 -7h352q14 0 23.5 7t9.5 16.5t-9.5 16.5
t-23.5 7h-153v93h49q42 0 78 8t74 31.5t64.5 61t43.5 100.5t17 146v133q0 32 -24 32z" />
    <glyph glyph-name="fabu" unicode="&#xe658;" 
d="M716 270zM838 -148h-640q-42 0 -80.5 38t-38.5 81v548q0 41 36 65t83 24h351q17 0 29.5 -12.5t12.5 -30.5t-12.5 -30.5t-29.5 -12.5h-351q-28 0 -34 -5l1 -546q0 -7 12 -20t21 -13h636q7 10 7 33v335q0 18 12.5 30.5t30.5 12.5q17 0 29.5 -12.5t12.5 -30.5v-335
q0 -53 -26.5 -86t-61.5 -33zM455 70q-14 0 -25.5 8.5t-15.5 22.5q-2 7 -5 21t-6.5 52t0 74t20 82t46.5 82q107 127 356 120l-139 140q-13 12 -13 30t13 30q12 13 30 13t30 -13l246 -245l-247 -218q-14 -12 -32 -10.5t-29 14.5q-12 13 -10.5 31t14.5 29l129 114
q-203 4 -282 -90q-26 -30 -38 -69.5t-10.5 -76t4 -55t5.5 -31.5q5 -17 -3.5 -32.5t-25.5 -20.5q-6 -2 -12 -2z" />
    <glyph glyph-name="bianji1" unicode="&#xe622;" 
d="M933 735.5q10 -10.5 12 -23t-6 -20.5l-429 -428q-8 -8 -20.5 -6.5t-22.5 11.5t-12 23t6 21l429 428q7 8 20 6.5t23 -12zM834 386v-464q0 -7 -5 -12.5t-12 -5.5h-684q-7 0 -12 5.5t-5 12.5v690q0 7 5 12.5t12 5.5h461v51h-461q-28 0 -48 -20t-20 -49v-690q0 -28 20 -48.5
t48 -20.5h684q28 0 48 20.5t20 48.5v464h-51z" />
    <glyph glyph-name="paixingbang" unicode="&#xe670;" 
d="M417 -7h189v755h-189v-755zM133 -7h189v378h-189v-378zM700 512v-519h189v519h-189zM700 512z" />
    <glyph glyph-name="licaizhidao" unicode="&#xe613;" 
d="M904 90h-384q17 29 26 63h358q13 0 22.5 -9.5t9.5 -22.5t-9.5 -22t-22.5 -9zM904 184h-352q2 18 2 32t-2 32h352q13 0 22.5 -9.5t9.5 -22.5t-9.5 -22.5t-22.5 -9.5zM904 279h-358q-9 34 -26 63h384q13 0 22.5 -9t9.5 -22.5t-9.5 -22.5t-22.5 -9zM904 374h-405
q-32 39 -75 63h480q13 0 22.5 -9.5t9.5 -22.5t-9.5 -22t-22.5 -9zM904 468h-502q-13 0 -22 9.5t-9 22.5t9 22t22 9h502q13 0 22.5 -9t9.5 -22t-9.5 -22.5t-22.5 -9.5zM904 563h-502q-13 0 -22 9t-9 22t9 22.5t22 9.5h502q13 0 22.5 -9.5t9.5 -22.5t-9.5 -22t-22.5 -9z
M528 216q0 -91 -64.5 -156t-155.5 -65t-155.5 65t-64.5 156t64.5 156t155.5 65t155.5 -65t64.5 -156zM385.5 192q-4.5 11 -12 19.5t-17.5 14.5t-20 10.5l-20 9t-17.5 9.5t-12.5 11t-5 14q0 6 2 11t6.5 9t10.5 6t15 2q11 0 20 -3t15.5 -6t11.5 -5.5t7 -2.5t3.5 1t2 3.5t1 6.5
t0.5 10q0 5 -0.5 8.5t-1 5.5t-1 3.5t-2.5 3.5t-8 5t-14 5t-17 4h-2h-2v33h-30v-33v0q-9 -1 -17 -3q-16 -5 -27 -14t-18 -23t-7 -32q0 -16 4.5 -27.5t12 -20t17.5 -14.5t20 -10.5t19.5 -9t17 -9t12.5 -11t5 -14.5t-3 -14t-8 -10t-12.5 -6.5t-16.5 -2.5q-15 0 -25.5 3.5
t-18.5 7t-13 7t-8 3.5q-2 0 -3.5 -1t-2.5 -3.5t-1 -7v-10.5q0 -9 1 -14t3.5 -7.5t8 -5.5t14.5 -6t20 -5.5t24 -2.5h1h1v-30h30v35h2.5t2.5 1q17 5 29.5 15t20 25t7.5 35q0 16 -4.5 27zM499 58h405q13 0 22.5 -9t9.5 -22t-9.5 -22.5t-22.5 -9.5h-480q43 24 75 63z" />
    <glyph glyph-name="keji" unicode="&#xe629;" 
d="M389 -18h15q10 0 17.5 -7.5t7.5 -17.5v0q0 -11 7.5 -18.5t18.5 -7.5h114q11 0 18.5 7.5t7.5 18.5v0q0 10 7.5 17.5t17.5 7.5h15q13 0 22.5 9.5t9.5 22.5v14q0 14 -9.5 23t-22.5 9h-246q-14 0 -23 -9t-9 -23v-14q0 -13 9.5 -22.5t22.5 -9.5zM493 689q-99 -7 -170.5 -79
t-77.5 -171q-3 -64 21 -121t71 -97q20 -18 20 -45q0 -26 18 -43.5t43 -17.5h188q25 0 43 17.5t18 43.5v0q0 27 21 46q43 37 67 89t24 111q0 116 -84.5 195.5t-201.5 71.5zM685 440q-6 -2 -13 -2q-27 0 -36 24q-17 48 -56.5 75t-85.5 23q-15 -1 -27 9.5t-13 26t9 27t26 13.5
q71 5 131 -35.5t87 -111.5q5 -15 -1.5 -29.5t-20.5 -19.5z" />
    <glyph glyph-name="icon12" unicode="&#xe637;" 
d="M800 -148h-578h-9q-3 1 -8 2l-8 2q-3 1 -7 3q-4 1 -7 3q-4 2 -7 5q-3 2 -6 5q-3 2 -6 5q-2 2 -5 6l-4 6t-4 7q-2 3 -4 7q-1 5 -2.5 8.5t-2 8t-1.5 8.5v8v613v8q1 4 2 9q0 4 2 8q1 3 2 7q2 4 3 7q3 5 5 8l4 6q3 3 5 6q4 3 6.5 5.5t5.5 4.5q3 3 6.5 4.5t7.5 3.5t7 3l8 2
t8.5 1.5t8.5 0.5h54q9 0 15 -6.5t6 -15t-6 -15t-15 -6.5h-54h-4t-4 -0.5t-3 -0.5l-4 -2q-1 0 -3 -1q-2 -2 -3 -2l-3 -3l-3 -3q-1 -1 -3 -2q0 -1 -2 -3q0 -1 -2 -4l-2 -4q0 -1 -1 -3q0 -2 -1 -4v-5v-4v-613v-4t0.5 -4.5t0.5 -3.5q1 -2 2 -5q1 -2 1 -3q1 -2 2 -3l2 -4
q2 -1 3 -3q2 -1 3 -2q1 -2 2.5 -3l3 -2t3.5 -1.5t3 -1.5q2 0 4 -1q2 0 3.5 -0.5t4.5 -0.5h578q2 0 4 1q2 0 4 0.5t3 0.5q2 1 4 1q1 1 3 2t3 2l3 3q2 1 3 2l3 3q1 2 1 3q2 2 3 4t1 3q1 2 1.5 4t1.5 4v5v4v613v4t-0.5 4.5t-1 4.5t-1 3.5t-1.5 3.5t-2 3q-2 2 -3 4t-2 3
q-2 1 -3 2l-2.5 2.5t-3.5 2.5q-2 0 -3.5 1t-3.5 2q-2 0 -3 1h-4h-4h-54q-9 0 -15 6.5t-6 15t6 15t15 6.5h54q5 0 9 -0.5t8 -1.5q3 -1 7 -2t8 -3t7 -3q4 -3 7 -5t6 -5q3 -2 6 -5q2 -3 5 -6q3 -4 5 -7q1 -2 3 -7q2 -3 4 -7q1 -3 2 -7q2 -5 2 -9l2 -8v-8v-613q0 -5 -0.5 -9
t-1.5 -8q0 -3 -2 -8l-2 -8q-1 -2 -3.5 -6.5t-4.5 -7.5q-1 -3 -4 -6q-3 -4 -5.5 -6.5t-5.5 -4.5q-3 -4 -6 -5q-3 -3 -6.5 -5t-7.5 -3q-4 -2 -8 -3q-3 -1 -7 -2q-5 -1 -8 -2h-9zM376 527q-23 0 -38 18q-13 18 -8 39l2 8q7 26 9 36q3 15 19 28t33 13h25h10v0q7 28 10 38
q4 15 19.5 27t35.5 12h22h14q20 0 35.5 -12t19.5 -27q7 -27 10 -38h10h19q24 0 39.5 -13t18.5 -28l11 -44q5 -22 -8 -39q-15 -18 -37 -18h-22h-248h-1zM418 626h-25q-2 0 -6 -3t-5 -6q-1 -6 -9 -35l-2 -8q0 -2 1 -3q1 -2 4 -2v-21v21q12 1 249 0h22q2 0 3 2q1 1 1 3l-11 44
v0v0q-4 8 -17 8h-19h-15q-12 0 -22 7.5t-13 20.5q-3 11 -11 42q-3 7 -14 7h-14h-22q-11 0 -14 -8q-2 -4 -10 -36l-1 -5q-3 -13 -13 -20.5t-23 -7.5h-14zM533 -12q0 -9 -6.5 -15.5t-15.5 -6.5t-16 6.5t-7 15.5v93h-100q-6 0 -10.5 4.5t-4.5 11t4.5 11t10.5 4.5h100v64h-100
q-6 0 -10.5 4.5t-4.5 11.5q0 5 4.5 9.5t10.5 4.5h99l-132 191q-5 8 -3 17t9 14q8 5 17 3.5t14 -8.5l115 -167q1 -3 3.5 -3t3.5 3l116 167q5 7 14 8.5t16.5 -3.5t9.5 -14t-3 -17l-132 -191h99q6 0 10 -4t4 -10q0 -7 -4 -11.5t-10 -4.5h-101v-64h101q6 0 10 -4.5t4 -11t-4 -11
t-10 -4.5h-101v-93v0z" />
    <glyph glyph-name="touxiang" unicode="&#xe618;" 
d="M625 130q-19 10 -32 17l-10 18q31 24 51.5 64t22.5 79q16 18 18 56.5t-2.5 62.5t-10.5 45q14 43 -11 79q-27 39 -77 39q-38 0 -79 -25q-67 -1 -90 -24.5t-24 -65.5q-5 -13 -9 -31.5t-2.5 -57.5t16.5 -75q1 -40 21.5 -81t52.5 -65l-18 -35h-132l-45 -90q5 -3 14 -8.5
t38 -20t58.5 -25t71 -19.5t79.5 -9q53 0 116 20.5t100 41.5l37 20l-67 90h-87zM510.5 746q-90.5 0 -173.5 -35t-142.5 -95t-95 -142.5t-35.5 -173.5t35.5 -174t95 -142.5t142.5 -95t173.5 -35.5t173.5 35.5t143 95t95 142.5t35 174t-35 173.5t-95 142.5t-143 95t-173.5 35z
M510.5 -102q-109.5 0 -202 53.5t-146 146.5t-53.5 202t53.5 201.5t146 146.5t202 54t202 -54t146.5 -146.5t54 -201.5t-54 -202t-146.5 -146.5t-202 -53.5z" />
    <glyph glyph-name="meitizixun" unicode="&#xe653;" 
d="M727 563l94 94q20 -18 57 -57q24 -25 38 -38q-13 -13 -45 -44t-49 -48q-38 38 -95 93zM896 306l-51.5 -51.5l-43.5 -43.5q-19 19 -54 55t-41 41q18 18 51 50.5t44 42.5q16 -16 95 -94zM472 339v-56q0 -13 -14 -13h-111q-13 0 -13 12q1 66 0 112q0 14 14 13h48.5h62.5
q3 -1 7.5 -5t4.5 -8q1 -7 1 -55zM631 734q47 -49 90 -92q-37 -37 -93 -94q-50 49 -93 91l40.5 40.5t55.5 54.5zM144 368q107 0 120.5 0.5t12.5 -12.5v-48.5v-64.5q0 -3 -3 -7.5t-6 -4.5h-124v137zM433 -79h-134l-2 12v54.5t-1 54.5q0 9 3.5 12.5t12.5 3.5h106q8 0 11.5 -3
t3.5 -11v-123zM673 310h-135v133h135v-133zM490 250h135v-136h-36q-74 0 -85 1q-3 0 -8 4t-5 6q-1 26 -1 125zM298 77v133h134v-133h-134zM144 75v135h133v-126q0 -2 -4 -5t-7 -3q-30 -1 -122 -1zM587 57v-136h-57h-65q-13 -1 -13 13v51.5v58.5q0 3 3 7.5t6 4.5q29 1 126 1z
M143 -79v136h36h81q9 1 13.5 -3t4.5 -14q-1 -20 -1 -104v-8t-3 -4.5t-8 -2.5h-123zM683 9q0 116 1 133q0 5 4 11t10.5 13t9.5 11q4 -1 6 -2v-16v-93q3 -33 -31 -57zM549 494q-14 -17 -25.5 -25t-29.5 -7q-8 1 -112 1q10 13 14.5 18t14 10t21.5 4q10 -1 117 -1zM536 463
q13 17 24 25t28 7h119q-3 -3 -8.5 -9t-8 -8.5t-7.5 -6.5t-8.5 -5.5t-9.5 -3t-12 -0.5h-97h-5t-7.5 0.5t-7.5 0.5zM509 455q-12 -17 -23 -24.5t-27 -6.5h-118q3 3 11 11.5t11.5 11.5t11 6t15.5 3q11 -1 119 -1zM325 403q0 -112 -1 -128q-1 -5 -4.5 -11t-10.5 -13.5t-9 -11.5
q-1 0 -2 1l-4 2q0 113 1 130q1 6 5 11t10.5 12t9.5 11q1 -1 2.5 -2t2.5 -1zM235 463q22 33 53 32q8 -1 106 -1q-1 0 -4.5 -4.5t-4.5 -5.5t-4 -4.5t-4 -4.5l-4 -4t-5 -3.5t-5 -2t-6 -2t-6.5 -1t-6.5 -0.5q-9 1 -109 1zM156 385q13 17 24 24t27 7q9 -1 109 -1
q-4 -3 -10.5 -10.5t-10.5 -11t-10.5 -6.5t-14.5 -2h-114zM354 455q-11 -13 -15 -17.5t-13 -9.5t-20 -4h-111q10 12 15 17.5t15 10t21 3.5h108zM713 476q0 -106 -1 -122q0 -5 -4 -10t-10.5 -11.5l-9.5 -9.5q-2 0 -5 1v55v44q-2 12 2.5 22.5t10 15.5t17.5 15zM635 98
q0 -115 -1 -132q0 -5 -4 -10.5t-10 -12.5t-9 -11q-2 1 -5 2v17v17v81q-2 30 29 49zM674 137q0 -115 -1 -134q-1 -5 -4.5 -10t-10.5 -12t-11 -12q-2 17 -2 18v99q-3 28 29 51zM646 130q0 112 1 130q0 5 3.5 10t10 11.5t8.5 10.5q2 -1 5 -2v-110q0 -22 -4 -28.5t-24 -21.5z
M656 299q-21 -31 -52 -29q-9 1 -104 1q11 15 21.5 22.5t26.5 6.5q10 -1 108 -1zM685 166v147l7 -7t6.5 -7t6 -7t5 -7t3 -7.5t1.5 -8.5t0 -9q-3 -19 0 -50q1 -11 -3.5 -18t-13.5 -14.5t-12 -11.5zM469 96q-2 -10 -4 -16h94v-3h-107q9 10 17 19zM491 407v-123h-1v124zM346 256
h115v-1h-115v1z" />
    <glyph glyph-name="jine" unicode="&#xe673;" 
d="M521 330q-12 0 -20 8l-124 129q-8 8 -8 20t8.5 20t20 7.5t19.5 -8.5l102 -106l84 104q7 9 18.5 10.5t20.5 -6t10.5 -19t-6.5 -20.5l-103 -129q-8 -10 -21 -10h-1zM677 315h-306q-12 0 -20 8t-8 20t8 20t20 8h306q11 0 19.5 -8t8.5 -20t-8.5 -20t-19.5 -8zM713 211h-377
q-15 0 -25 8t-10 20t10 20t25 8h377q14 0 24 -8t10 -20t-10 -20t-24 -8zM368 235h306h-306zM521.5 42q-11.5 0 -20 8.5t-8.5 20.5v272q0 12 8.5 20t20 8t19.5 -8t8 -20v-272q0 -12 -8 -20.5t-19.5 -8.5zM514 -147q-30 0 -61 4q-88 12 -164.5 56.5t-131.5 115.5
q-52 68 -74.5 154t-11.5 175.5t53.5 166.5t108.5 129q102 78 231.5 89t244.5 -50q36 -18 67 -43q9 -7 10.5 -18.5t-5.5 -20.5t-18.5 -10.5t-20.5 5.5q-28 21 -59 38q-100 52 -213.5 43t-201.5 -78q-58 -45 -95 -112t-47 -145q-9 -79 10.5 -154.5t65.5 -134.5
q48 -62 115 -101t144 -49.5t151 9.5t135 67q83 64 121 160t23.5 199t-78.5 187q-8 9 -6.5 20.5t11 18.5t21 5.5t18.5 -10.5q74 -96 90.5 -214t-27.5 -227.5t-139 -183.5q-118 -91 -267 -91z" />
    <glyph glyph-name="date" unicode="&#xe6a0;" horiz-adv-x="1031" 
d="M544 339q-17 0 -27.5 -10t-15.5 -23t-18.5 -26t-34.5 -18l-19 -6q-16 -3 -20.5 -4t-10.5 -4.5t-7 -8.5t-1 -15q0 -32 26 -32h77v-211q0 -26 8 -38.5t30 -12.5q39 0 39 51v320q0 38 -26 38zM294 550h13q15 0 23.5 9t8.5 23v154q0 14 -8.5 23t-23.5 9h-13q-14 0 -23 -9
t-9 -23v-160q0 -10 9.5 -18t22.5 -8zM710 550h13q15 0 23.5 9t8.5 23v154q0 14 -8.5 23t-23.5 9h-13q-14 0 -23 -9t-9 -23v-160q0 -9 11 -17.5t21 -8.5zM890 691h-84v-57h84q28 0 49 -21t21 -50v-64h-902v64q0 29 20.5 50t49.5 21h83v57h-77q-56 0 -95 -40t-39 -94v-621
q0 -54 39 -94t95 -40h762q54 0 94 38.5t40 95.5v621q-5 54 -44.5 94t-95.5 40zM890 -134h-756q-28 0 -49 20.5t-21 49.5v499h902v-493q0 -33 -21.5 -54.5t-54.5 -21.5zM384 691h256v-57h-256v57z" />
    <glyph glyph-name="9" unicode="&#xe693;" 
d="M960 -35h-895v672h895v-672zM904 21v560h-783v-560h783zM624.5 77q-92.5 0 -158 65.5t-65.5 158.5t65.5 158.5t158 65.5t158 -65.5t65.5 -158.5t-65.5 -158.5t-158 -65.5zM624.5 133q69.5 0 118.5 49t49 118.5t-49 119t-118.5 49.5t-118.5 -49.5t-49 -119t49 -118.5
t118.5 -49zM494 326l47 31l56 -84l111 112l40 -40l-112 -112l-48 -48l-38 57zM177 413v56h168v-56h-168zM177 273v56h168v-56h-168zM177 133v56h168v-56h-168z" />
    <glyph glyph-name="shijian" unicode="&#xe6a1;" 
d="M506 -158q-94 0 -179.5 36.5t-147.5 98.5t-99 148t-37 180t37 179.5t99 147.5t147.5 99t179.5 37t180 -37t148 -99t98.5 -147.5t36.5 -179.5t-36.5 -180t-98.5 -148t-148 -98.5t-180 -36.5zM506.5 694q-105.5 0 -195.5 -52t-142 -142t-52 -195.5t52 -195.5t142 -142
t195.5 -52t195.5 52t142 142t52 195.5t-52 195.5t-142 142t-195.5 52zM691 229h-263v332q0 15 11 25.5t26 10.5t25.5 -10.5t10.5 -25.5v-259h190q15 0 26 -11t11 -26t-11 -25.5t-26 -10.5z" />
    <glyph glyph-name="hot" unicode="&#xe663;" 
d="M488 710l-386 -386v-434l820 820h-434zM372 227q-8 11 -20 23l-48 48l-86 -86l48 -48q12 -12 23 -20l-18 -18q-7 10 -20 23l-102 102q-13 13 -23 20l18 18q8 -11 19 -22l41 -41l86 86l-40 40q-13 13 -23 20l18 18q8 -11 20 -22l102 -103q12 -11 23 -20zM483.5 333
q-30.5 -30 -68.5 -27.5t-72.5 37t-37 73t27.5 68.5t68.5 27.5t73 -37t37 -73t-28 -68.5zM589 488l-110 110l-29 -30q-14 -13 -21 -23l-16 16q11 8 23 20l74 75q14 13 22 23l16 -16q-11 -7 -24 -21l-30 -29l110 -110q13 -13 23 -21l-18 -17q-6 9 -20 23zM393 491
q-27 -1 -47 -21q-23 -22 -20 -53t31.5 -59t59 -31t53.5 20q20 20 20 46q1 33 -31.5 65.5t-65.5 32.5z" />
    <glyph glyph-name="feiji" unicode="&#xe6ab;" 
d="M947 709q-4 -19 -23 -104.5t-30 -132.5q-18 -81 -54.5 -242.5t-54.5 -241.5q0 -2 -0.5 -5t-1.5 -5q-6 -28 -11 -42.5t-11.5 -24t-18 -7.5t-25.5 9t-38 23q-131 88 -144 97q-22 15 -35 10.5t-22 -28.5q-17 -47 -50 -126q-1 -1 -3 -6t-2.5 -6.5t-3 -5.5t-4 -5.5t-4 -4.5
t-5 -4t-6 -1.5t-7.5 -0.5q-30 3 -31 44q0 35 -9.5 99t-11.5 92q-1 26 -10 41.5t-31 26.5q-45 21 -188 99q-1 1 -6 3.5l-7 3.5t-6 3.5t-6 4.5l-5 5t-4 5.5t-2.5 6.5t-1.5 8q0 7 2 12.5t6.5 9.5t8.5 6t11.5 5.5t9.5 4.5q308 161 775 403q60 31 60 -29zM863 572l-15 -3
q-18 -25 -309 -437q-18 -25 9 -44q31 -21 119 -83q38 -28 52.5 -22t24.5 53q13 57 37.5 164.5t34.5 154.5q5 19 47 217zM763 604q-8 0 -11.5 1t-9.5 -1l-7.5 -2.5t-6.5 -3t-6 -3.5q-359 -186 -467 -243q-8 -4 -33 -12.5t-38.5 -17.5t-13.5 -23q0 -16 12.5 -26t38 -19.5
t33.5 -13.5q28 -16 39.5 -22.5t28.5 -10.5t22.5 -3.5t21 9.5t24 18t31.5 32q225 224 342 341zM692 447q-8 -1 -14 -4.5t-14.5 -13l-8.5 -9.5l-211 -211q-90 -90 -30 -218q20 61 56 124.5t71 110.5t79.5 109.5t71.5 111.5z" />
    <glyph glyph-name="shoucang2" unicode="&#xe660;" horiz-adv-x="1025" 
d="M1001 482q-15 110 -99.5 181t-191.5 71q-67 0 -127 -30q-13 -7 -26.5 -15.5t-31 -20.5t-26.5 -18q-2 1 -4 3q-86 81 -201 81q-79 0 -148 -40q-79 -46 -118 -129.5t-24 -174.5q17 -98 95 -176q161 -162 340 -343q26 -26 63 -26t63 26q234 235 353 357q104 107 83 254z" />
    <glyph glyph-name="shoucang" unicode="&#xe647;" 
d="M702 688q-33 0 -64.5 -13.5t-55.5 -35.5t-40.5 -41t-29.5 -39q-13 20 -29.5 39t-40.5 41t-55.5 35.5t-64.5 13.5q-101 0 -172.5 -79.5t-71.5 -191.5q0 -52 30.5 -117.5t73.5 -104.5q57 -72 182.5 -179t148.5 -107t146.5 105.5t180.5 179.5q44 40 75 105.5t31 117.5
q0 112 -71.5 191.5t-172.5 79.5zM889 417q0 -42 -26.5 -96t-62.5 -86q-1 -1 -3 -4q-48 -61 -131.5 -134t-152.5 -124q-200 146 -286 259l-4 4q-36 32 -62 85.5t-26 95.5q0 88 55 150.5t132 62.5q47 0 91.5 -42t72.5 -101q7 -15 26 -15t26 15q28 59 72.5 101t91.5 42
q77 0 132 -62.5t55 -150.5v0z" />
    <glyph glyph-name="pengyouquan" unicode="&#xe686;" 
d="M511 811q-104 0 -198.5 -40.5t-163 -109t-109 -163t-40.5 -199t40.5 -199t109 -163t163 -109t199 -40.5t199 40.5t163 109t109 163t40.5 199t-40.5 199t-109 163t-163 109t-199.5 40.5v0zM516 764q84 0 155 -27v-305l-364 282q99 50 209 50v0zM671 297
q0 -64 -45.5 -109.5t-109.5 -45.5t-109.5 45.5t-45.5 109.5t45.5 109.5t109.5 45.5t109.5 -45.5t45.5 -109.5v0zM267 692l249 -195h-420q54 121 171 195v0zM49 297q0 84 27 155h305l-307 -301q-25 74 -25 146v0zM316 -125q-75 35 -132.5 95t-91.5 137l224 224v-456v0z
M516 -169q-84 0 -155 27v314q3 -4 10 -11.5t10 -11.5l281 -296q-79 -22 -146 -22v0zM707 -129l-225 224h456q-76 -152 -231 -224v0zM982 297q0 -84 -26 -155h-314q9 7 22 21l2 2q11 11 18 25v2l269 269q29 -84 29 -164v0zM716 284v13v420q71 -34 127.5 -90t89.5 -126
l-217 -217v0z" />
    <glyph glyph-name="jingzhundingwei" unicode="&#xe62a;" 
d="M921 474q-33 80 -95 141.5t-141 95.5q-83 35 -173.5 35t-173.5 -35q-80 -34 -141.5 -95.5t-95.5 -141.5q-35 -83 -35 -173.5t35 -173.5q34 -79 95.5 -141t141.5 -95q83 -35 173.5 -35t173.5 35q79 33 141 95t95 141q35 83 35 173.5t-35 173.5zM894 331h-144
q-10 82 -68.5 140t-139.5 68v144q140 -11 240 -111t112 -241zM481 331h-146q9 56 49.5 96.5t96.5 49.5v-146zM481 270v-146q-56 10 -96.5 50t-49.5 96h146zM542 270h146q-10 -56 -50 -96t-96 -50v146zM542 331v146q56 -9 96 -49.5t50 -96.5h-146zM481 683v-144
q-82 -10 -140 -68t-68 -140h-144q11 141 111 241t241 111zM129 270h144q10 -81 68 -139.5t140 -68.5v-144q-141 11 -241 111.5t-111 240.5zM542 -82v144q81 10 139.5 68.5t68.5 139.5h144q-12 -140 -112 -240.5t-240 -111.5z" />
    <glyph glyph-name="icon1" unicode="&#xe6ac;" 
d="M703 132v-139l-92 99l-249 -111l-233 637l830 -372l-147 -66l-583 348l474 -396v0z" />
    <glyph glyph-name="neirong" unicode="&#xe60b;" 
d="M781 455l-117 117l-347 -347l117 -117zM237 26l160 43l-117 117zM899 618l-70 70q-10 10 -23.5 10t-23.5 -10l-46 -47q-10 -10 -10 -23.5t10 -23.5l70 -70q9 -10 23 -10t24 10l46 47q10 10 10 23.5t-10 23.5zM844 2q0 -14 -10 -24t-23 -10h-597q-13 0 -23 10t-10 24v596
q0 14 10 23.5t23 9.5h415l66 67h-481q-41 0 -70 -29.5t-29 -70.5v-596q0 -42 29 -71t70 -29h597q41 0 70 29t29 71v489l-66 -67v-422z" />
    <glyph glyph-name="news" unicode="&#xe60c;" 
d="M386 615q-60 -23 -109 -65.5t-81 -99.5h134q18 96 56 165zM502 450v188q-41 -2 -83 -13q-42 -71 -62 -175h145zM830 450q-64 116 -185 163q37 -68 56 -163h129zM611 625q-40 11 -82 13v-188h145q-20 103 -63 175zM644 -62q122 47 186 164h-130q-18 -96 -56 -164zM529 102
v-187q44 2 82 12q42 70 62 175h-144zM197 102q31 -57 80 -99.5t110 -65.5q-38 68 -57 165h-133zM420 -73q42 -11 82 -13v188h-145q21 -106 63 -175zM232 165v234h-29v-184l-123 184h-32v-234h30v184l123 -184h31zM454 371v28h-169v-234h174v27h-143v80h129v27h-129v72h138z
M543 165h32l49 178q3 11 7 27q1 -5 7 -27l50 -178h29l65 234h-32l-36 -151q-7 -28 -12 -50q-5 38 -18 82l-34 119h-37l-44 -158q-2 -6 -11 -43q-4 23 -10 47l-35 154h-32zM976 264.5q-10 14.5 -30 23.5q-14 6 -51.5 14.5t-46.5 17t-9 20.5q0 15 12.5 25t40.5 10q27 0 41 -11
t16 -33l30 2q-1 20 -11.5 36.5t-30.5 25t-46 8.5q-24 0 -43 -8t-29 -23.5t-10 -33.5q0 -16 8 -29t25 -22q13 -7 45 -14.5t42 -11.5q14 -5 20.5 -13.5t6.5 -19t-6.5 -20t-20 -14.5t-31.5 -5q-20 0 -36 7t-23.5 18t-9.5 29l-29 -3q0 -23 12.5 -42t34 -28t52.5 -9q26 0 46 9
t30.5 25.5t10.5 35.5t-10 33.5z" />
    <glyph glyph-name="koubeilogo" unicode="&#xe690;" 
d="M888 695h-752q-30 0 -51 -21t-21 -51v-188q0 -144 81.5 -261t207.5 -167q4 -2 7 -5q2 -4 2 -9v-47q0 -11 9 -20q7 -7 17 -8q56 -6 120 3q154 21 273 124q91 80 135 184t44 209v185q0 30 -21 51t-51 21zM772 270q-44 -65 -113 -101.5t-147 -36.5q-130 0 -222.5 92.5
t-92.5 222.5q0 16 11.5 27.5t28 11.5t28 -11.5t11.5 -27.5q0 -98 69 -167t167 -69q59 0 110.5 27t84.5 76q9 14 25 17t29.5 -6.5t16.5 -25.5t-6 -29zM787 401q-19 0 -32.5 13.5t-13.5 32.5t13.5 33t32.5 14t33 -14t14 -33t-14 -32.5t-33 -13.5z" />
    <glyph glyph-name="qixian" unicode="&#xe65d;" 
d="M757 327q0 -18 -12.5 -30.5t-30.5 -12.5h-405q-18 0 -30.5 12.5t-12.5 30.5v0q0 18 12.5 30.5t30.5 12.5h405q18 0 30.5 -12.5t12.5 -30.5v0v0zM758 157q0 -18 -12.5 -30.5t-30.5 -12.5h-405q-18 0 -30.5 12.5t-12.5 30.5v0q0 18 12.5 30.5t30.5 12.5h405
q18 0 30.5 -12.5t12.5 -30.5v0v0zM798 -147h-572q-54 0 -91.5 33.5t-37.5 81.5v568q0 47 37.5 81t91.5 34h572q54 0 91.5 -34t37.5 -81v-568q0 -48 -37.5 -81.5t-91.5 -33.5v0zM226 560q-17 0 -28.5 -7.5t-11.5 -16.5v-568q0 -9 11.5 -16.5t28.5 -7.5h572q17 0 28.5 7.5
t11.5 16.5v568q0 9 -11.5 16.5t-28.5 7.5h-572v0zM725 517q0 -14 -12 -24t-29 -10v0q-17 0 -29 10t-12 24v196q0 14 12 24t29 10v0q17 0 29 -10t12 -24v-196v0zM378 515q0 -15 -12 -25t-29 -10v0q-17 0 -29 10t-12 25v196q0 14 12 24t29 10v0q17 0 29 -10t12 -24v-196v0z
M378 515z" />
    <glyph glyph-name="qiche" unicode="&#xe674;" 
d="M949 231q-2 36 -24 66.5t-56 45.5l-41 191q-11 53 -57 90t-99 37h-321q-53 0 -99 -37t-57 -90l-41 -191q-34 -15 -56 -45.5t-24 -66.5l-9 -123q-3 -39 17 -72t56 -47q8 -32 34 -52.5t60 -20.5q31 0 56 17.5t35 46.5h377q10 -29 35 -46.5t56 -17.5q34 0 60 20.5t35 52.5
q35 14 55 47t18 72zM855 36q-20 -4 -21 -25q-1 -17 -13.5 -29t-29.5 -12q-16 0 -28.5 11.5t-13.5 27.5q-1 11 -9 18t-18 7h-421q-10 0 -18 -7t-9 -18q-1 -16 -13.5 -27.5t-28.5 -11.5q-17 0 -29.5 12t-13.5 29q-1 21 -21 25q-23 6 -37 25t-12 43l9 123q2 24 18.5 43.5
t40.5 26.5q17 5 19 23v5l1 2l41 196q8 34 38.5 58.5t64.5 24.5h321q34 0 64.5 -24.5t38.5 -58.5l41 -196l1 -2v-5q2 -18 19 -23q24 -7 40.5 -26.5t18.5 -43.5l9 -123q2 -24 -12 -43t-37 -25zM301 317h421q16 0 24 10q9 11 7 26v2l-33 144q-4 17 -18.5 29.5t-31.5 12.5h-317
q-17 0 -31.5 -12.5t-18.5 -29.5l-33 -144v-2q-2 -15 6 -25q9 -11 25 -11zM357 486h309l27 -114h-363zM268 224q-26 0 -44 -18.5t-18 -44t18 -43.5t44 -18t44 18t18 43.5t-18 44t-44 18.5zM755.5 224q-25.5 0 -44 -18.5t-18.5 -44t18.5 -43.5t44 -18t43.5 18t18 43.5t-18 44
t-43.5 18.5z" />
    <glyph glyph-name="heibanblackboard10" unicode="&#xe614;" 
d="M140 11h331l-98 -139h47l98 139h19l98 -139h47l-98 139h300q1 1 6.5 0t11.5 4.5t6 17.5q0 7 -2.5 12t-6 7.5t-7 4t-5.5 1.5h-3h-744q-3 0 -7 -0.5t-10.5 -7t-6.5 -18t6 -17t11.5 -4.5t6.5 0zM489 896v-47h-47v-46h140v46h-47l3 47h-49zM116 663v-465q0 -26 10 -45.5
t22.5 -28t28.5 -13.5t22.5 -6t9.5 -1v0h606q3 0 9.5 1t22.5 6t28.5 13.5t22.5 28t10 45.5v465q0 26 -9.5 45.5t-23.5 28t-27.5 13.5t-23.5 6h-9h-606q-3 0 -9.5 -0.5t-22.5 -5.5t-28.5 -13.5t-22.5 -28t-10 -45.5zM349 198q-58 0 -99 40.5t-41 98.5t41 99t99 41v-140h140
q0 -58 -41 -98.5t-99 -40.5zM815 244h-233v47h233v-47zM815 384h-233v46h233v-46zM815 570h-606v93h606v-93z" />
    <glyph glyph-name="nvxing" unicode="&#xe675;" 
d="M586.5 192q93.5 0 160 66.5t66.5 160t-66.5 160t-160 66.5t-160 -66.5t-66.5 -160t66.5 -160t160 -66.5zM586 119q-124 0 -211.5 87.5t-87.5 212t87.5 212.5t212 88t212 -88t87.5 -212.5t-87.5 -212t-212.5 -87.5v0v0zM159 -51q-7 0 -13 5l-26 26q-5 6 -5 13.5t5 12.5
l91 91l-91 90q-5 5 -5 13t5 13l26 26q6 5 13.5 5t12.5 -5l91 -91l116 117q5 5 12.5 5t13.5 -5l26 -26q5 -5 5 -13t-5 -13l-117 -116l91 -91q5 -5 5 -12.5t-5 -13.5l-26 -26q-5 -5 -13 -5t-13 5l-90 91l-91 -91q-5 -5 -13 -5v0v0z" />
    <glyph glyph-name="shouji" unicode="&#xe665;" 
d="M776 795h-528q-27 0 -46.5 -19.5t-19.5 -46.5v-858q0 -27 19.5 -46.5t46.5 -19.5h528q27 0 46.5 19.5t19.5 46.5v858q0 27 -19.5 46.5t-46.5 19.5zM248 745h528q7 0 11.5 -4.5t4.5 -11.5v-668h-560v668q0 7 4.5 11.5t11.5 4.5zM776 -145h-528q-7 0 -11.5 4.5t-4.5 11.5
v140h561v-140q-1 -7 -5.5 -11.5t-11.5 -4.5zM512 -63zM463 -62.5q0 20.5 14.5 35t34.5 14.5t34.5 -14.5t14.5 -35t-14.5 -35t-34.5 -14.5t-34.5 14.5t-14.5 35z" />
    <glyph glyph-name="htmal5icon23" unicode="&#xe659;" 
d="M775 656q-51 55 -120.5 85t-147.5 30q-103 0 -191.5 -51.5t-139.5 -139.5t-51 -191.5t51 -191.5t139.5 -139.5t191.5 -51.5q131 0 233 81.5t135 205.5h-100q-30 -84 -103 -137.5t-165 -53.5q-118 0 -202.5 84t-84.5 202.5t84.5 203t202.5 84.5q115 0 201 -86l-153 -153
h334v334z" />
    <glyph glyph-name="sirenlicai02" unicode="&#xe60d;" 
d="M348 689l11 -82l242 -161q26 -18 32 -49t-12 -57t-49 -32t-58 12l-241 161l-81 -19l-165 112q-17 11 -13 30.5t24 23.5l90 18q12 3 19 13t5 22l-16 90q-4 20 13 31t34 -1zM183 415l15 3q-2 -18 -2 -34q0 -98 49 -181t132.5 -131t182 -48t182 48t132 131t48.5 181
t-48.5 181t-132 131t-182.5 48q-89 0 -168 -41l-2 12l-70 47q110 70 240 70q92 0 175.5 -35.5t144 -95.5t96.5 -143t36 -174t-36 -174t-96.5 -143t-144 -95.5t-175 -35.5t-175.5 35.5t-144 95.5t-96 143t-36 174q0 35 7 77zM559 550q-14 0 -30 -3l-90 60q56 30 120 30
q106 0 180.5 -74t74.5 -179t-74.5 -179t-180 -74t-180.5 74t-75 179q0 9 1 23l92 -62q14 -55 59 -91t103 -36q69 0 118 49t49 117t-49 117t-118 49z" />
    <glyph glyph-name="shalou" unicode="&#xe676;" 
d="M856 39h-6h-43v72q0 82 -39 152.5t-106 111.5q67 41 106 111t39 152v91h44h5q14 0 23.5 9.5t9.5 24t-9.5 24.5t-23.5 10h-5h-677h-6q-13 0 -22.5 -10t-9.5 -24.5t9.5 -24t22.5 -9.5h6h47v-91q0 -82 39 -152t105 -111q-66 -41 -105 -111.5t-39 -152.5v-72h-48h-5
q-14 0 -23.5 -9.5t-9.5 -24t9.5 -24.5t23.5 -10h5h677h6q13 0 22.5 10t9.5 24.5t-9.5 24t-22.5 9.5v0zM741 39h-455v72q0 82 47.5 146t123.5 85q6 1 11 5h1l1 1v0l2 2v0q1 0 1 1v0l1 1v0l1 1v0q1 1 1 2v0l2 2v1q1 0 1 0.5v1t0.5 0.5t0.5 1v0q4 11 2 22q-3 11 -11 18v0h-0.5
t-0.5 1v0h-1q-5 4 -11 6q-76 20 -124 84.5t-48 145.5v91h455v-91q0 -81 -48 -145.5t-124 -84.5q-12 -3 -18.5 -13.5t-5.5 -23.5v0v-1v-1v-1v0l1 -1v-2v0q0 -1 1 -2v0v-1v0q1 -1 1 -2v0q1 -3 3 -5v0q0 -1 1 -2v0l0.5 -0.5l0.5 -0.5l0.5 -0.5l0.5 -0.5h1q4 -5 10 -8h1h0.5
t0.5 -1h1h1q76 -20 124 -84.5t48 -146.5v-72v0zM741 39z" />
    <glyph glyph-name="qiye" unicode="&#xe623;" 
d="M959 -70h-894q-10 0 -17 7.5t-7 17t7 16.5t17 7h894q10 0 17 -7t7 -16.5t-7 -17t-17 -7.5v0zM959 -70zM321 615h-88q-10 0 -17 7t-7 17t7 16.5t17 6.5h88q10 0 17 -6.5t7 -16.5t-7 -17t-17 -7v0zM321 615zM513 615h-88q-10 0 -17 7t-7 17t7 16.5t17 6.5h88q10 0 17 -6.5
t7 -16.5t-7 -17t-17 -7v0zM513 615zM724 364v88q0 10 7 17t17 7t17 -7t7 -17v-88q0 -10 -7 -17t-17 -7t-17 7t-7 17v0zM724 364zM724 124v89q0 10 7 17t17 7t17 -7t7 -17v-89q0 -10 -7 -17t-17 -7t-17 7t-7 17v0zM724 124zM321 402h-88q-10 0 -17 7t-7 17t7 17t17 7h88
q10 0 17 -7t7 -17t-7 -17t-17 -7v0zM321 402zM513 402h-88q-10 0 -17 7t-7 17t7 17t17 7h88q10 0 17 -7t7 -17t-7 -17t-17 -7v0zM513 402zM321 189h-88q-10 0 -17 7t-7 17t7 17t17 7h88q10 0 17 -7t7 -17t-7 -17t-17 -7v0zM321 189zM513 189h-88q-10 0 -17 7t-7 17t7 17
t17 7h88q10 0 17 -7t7 -17t-7 -17t-17 -7v0zM513 189zM97 -46v812q0 30 21 51t51 21h406q30 0 51 -21t21 -51v-796q0 -9 -7 -16t-17 -7t-17 7t-7 16v796q0 10 -7 17t-17 7h-406q-10 0 -17 -7t-7 -17v-812h-48zM626 615h220q30 0 51 -21t21 -51v-576q0 -10 -7 -17t-17 -7
t-17 7t-7 17v576q0 10 -7 17t-17 7h-220v48z" />
    <glyph glyph-name="shijian1" unicode="&#xe632;" 
d="M512 -18q-109 0 -201.5 54t-146.5 146.5t-54 201.5t54 201.5t146.5 146.5t201.5 54t201.5 -54t146.5 -146.5t54 -201.5t-54 -201.5t-146.5 -146.5t-201.5 -54zM512 713q-89 0 -165 -44t-120 -120t-44 -165t44 -165t120 -120t165 -44t165 44t120 120t44 165t-44 165
t-120 120t-165 44zM439 274v73v220h73v-220h219v-73h-219h-73z" />
    <glyph glyph-name="rectangle52rectangle52-copy" unicode="&#xe605;" 
d="M452 82h-98v409h-119l217 218v-627zM573 685h97v-407h120l-217 -218v625z" />
    <glyph glyph-name="bangdan" unicode="&#xe638;" 
d="M878 99v287h-161v-287h-125v654h-161v-654h-124v449h-161v-449h-83v-80h83h161h124h161h125h161h82v80h-82z" />
    <glyph glyph-name="wangzhi" unicode="&#xe61b;" 
d="M981 669q8 30 10 63t-5 69t-34 61.5t-71 31.5q-116 16 -285 -96q-34 5 -66 5q-121 2 -206.5 -40t-154.5 -132q-27 -34 -46.5 -87t-26.5 -114q41 69 137 155t200 127q-10 -7 -25.5 -19t-60.5 -52.5t-85 -83t-87 -107t-78 -129.5v0v-2v-1q-12 -28 -14 -32q-31 -78 -43 -144
t-6.5 -110.5t23 -78.5t40 -51.5t48.5 -24.5q59 -15 132 13.5t135 94.5q71 -17 141.5 -12.5t120 17t80.5 29.5q76 42 125.5 110.5t62.5 145.5h-278q-1 -3 -2.5 -9t-11.5 -21.5t-25.5 -27.5t-47.5 -22t-74 -10q-28 0 -51 9t-37.5 23t-25.5 31t-16.5 34t-8.5 31t-4 23v9h590
q1 7 1 19t-2.5 47.5t-9 69t-23 75.5t-39.5 74q-81 109 -201 150q68 50 114 62q57 15 96.5 4t63.5 -51q13 -21 15 -54.5t-4 -66.5t-14 -62.5t-14 -48.5l-7 -18q33 51 55 124zM370 -3q-56 -45 -108 -61t-88 -6t-55 40q-25 39 -26.5 104t26.5 158q29 -77 87 -134
q70 -69 164 -101zM366 491q0 5 1.5 12.5t9 27.5t19.5 36t38 30.5t60 16.5q154 13 179 -128z" />
    <glyph glyph-name="wenzhang" unicode="&#xe65a;" 
d="M679 797h-21h-51h-390q-25 0 -43 -17t-18 -41v-716q0 -24 18 -41t43 -17h585q25 0 43 17t18 41v569l-184 205v0zM782 593h-124v138l124 -138v0zM790 28h-560q-10 0 -10 7v693q0 7 10 7h381v-151q0 -21 14.5 -35.5t35.5 -14.5h139v-499q0 -7 -10 -7v0zM790 28zM557 544
q0 -13 -9.5 -22.5t-22.5 -9.5h-173q-13 0 -22.5 9.5t-9.5 22.5v0q0 13 9.5 22.5t22.5 9.5h173q13 0 22.5 -9.5t9.5 -22.5v0zM708 385q0 -13 -9.5 -22.5t-22.5 -9.5h-322q-13 0 -22.5 9.5t-9.5 22.5v0q0 13 9.5 22.5t22.5 9.5h322q13 0 22.5 -9.5t9.5 -22.5v0zM708 226
q0 -13 -9.5 -22.5t-22.5 -9.5h-322q-13 0 -22.5 9.5t-9.5 22.5v0q0 13 9.5 22.5t22.5 9.5h322q13 0 22.5 -9.5t9.5 -22.5v0z" />
    <glyph glyph-name="remen" unicode="&#xe60e;" 
d="M350 -42q-20 42 -27.5 78.5t-1.5 67.5t17 53.5t29 50.5q22 31 37 65.5t19 54.5l5 19q1 -2 3.5 -6t8.5 -16.5t8.5 -26t5 -35t-3.5 -42.5q45 50 61.5 122.5t7.5 114.5q55 -38 95 -98.5t58 -127.5t12.5 -140t-37.5 -134q94 53 150.5 117.5t72.5 126t10 125t-29.5 115.5
t-53.5 98t-55 73t-41 38q11 -23 14 -51t-4 -57t-27 -46q-19 73 -50.5 132t-63 91.5t-60 54t-46.5 29.5l-18 7q24 -162 -162 -391q-3 48 -9 77.5t-25 64.5q-4 -53 -48 -142t-53 -132q-21 -102 24 -179t177 -151v0z" />
    <glyph glyph-name="puguang" unicode="&#xe603;" 
d="M625 38q0 -9 -6.5 -15.5t-16.5 -6.5h-179q-9 0 -15.5 6.5t-6.5 16t6.5 16t15.5 6.5h179q10 0 16.5 -6.5t6.5 -16.5v0zM602 5h-179q-11 0 -17.5 -9.5t-3.5 -20.5q5 -15 22 -15h1q21 0 30 -19v-1q13 -25 42 -25h32q29 0 41 25l1 1q9 19 30 19v0q18 0 23 15q3 11 -3.5 20.5
t-18.5 9.5v0zM513 724q9 0 15.5 6.5t6.5 15.5v90q0 10 -6.5 16.5t-15.5 6.5t-15.5 -6.5t-6.5 -16.5v-90q0 -9 6.5 -15.5t15.5 -6.5v0zM276 638q6 -6 15.5 -6t16 6.5t6.5 16t-7 15.5l-63 64q-6 6 -15.5 6t-16 -6.5t-6.5 -15.5t7 -16l63 -64v0zM222 432q0 9 -6.5 15.5
t-15.5 6.5h-89q-10 0 -16.5 -6.5t-6.5 -15.5t6.5 -16t16.5 -7h89q9 0 15.5 7t6.5 16v0zM276 225l-63 -63q-7 -7 -7 -16.5t6.5 -16t16 -6.5t15.5 7l63 63q7 7 7 16.5t-6.5 16t-16 6.5t-15.5 -7v0zM750 225q-7 7 -16 7t-15.5 -6.5t-6.5 -16t6 -16.5l64 -63q6 -7 15.5 -7
t16 6.5t6.5 16t-7 16.5l-63 63v0zM915 454h-89q-9 0 -15.5 -6.5t-6.5 -15.5t6.5 -16t15.5 -7h89q10 0 16.5 7t6.5 16t-6.5 15.5t-16.5 6.5v0zM734 632q9 0 16 6l63 64q7 7 7 16t-6.5 15.5t-16 6.5t-15.5 -6l-64 -64q-6 -6 -6 -15.5t6.5 -16t15.5 -6.5v0zM625 95
q0 -10 -6.5 -16.5t-16.5 -6.5h-179q-9 0 -15.5 6.5t-6.5 16.5q0 9 6 15.5t15 6.5q-4 34 -20 65t-36.5 54.5t-40.5 48.5t-33.5 59.5t-13.5 76.5q0 97 69 166.5t166 69.5t166 -69.5t69 -166.5q0 -42 -13.5 -76.5t-33.5 -59.5t-40.5 -48.5t-37 -54.5t-19.5 -65q8 0 14.5 -6.5
t6.5 -15.5v0zM461 594q-2 6 -8.5 8.5t-12.5 0.5q-43 -18 -74 -53t-42 -80q-2 -7 1.5 -13t10.5 -8h4q13 0 16 12q10 38 35.5 67t60.5 44q7 2 9.5 8.5t-0.5 13.5v0z" />
    <glyph glyph-name="gouwuche" unicode="&#xe655;" 
d="M896 655q26 0 40 -7q7 -3 12 -7t8 -9q6 -10 5 -21v-8q0 -2 -1 -6t-2 -6l-12 -33l-19 -55l-21 -59q-12 -36 -16 -47q-6 -17 -13.5 -29.5t-16.5 -19.5q-18 -14 -44 -14h-479l14 -80h459q44 0 44 -37q0 -18 -9 -31q-8 -13 -34 -13h-478q-6 0 -11.5 1t-10 2.5t-8.5 4.5
q-12 8 -20 21q-4 6 -7.5 13t-6.5 15q-5 19 -7 29l-5 26l-11 51l-13 69l-15 77l-39 200h-68q-14 0 -22 6q-9 7 -17 16q-2 6 -4.5 11t-3.5 10t-1.5 10.5t-0.5 8.5q0 18 12 30q8 5 16 8t18 3h92q18 0 29 -5q5 -3 9.5 -6t8.5 -7q6 -9 8 -17l6 -16q1 -4 3 -15v-5l4 -25l5 -34h623
v0zM743 147q8 0 17 -1q8 -2 16 -5q17 -6 28 -18q12 -12 19 -26q6 -15 6 -31q0 -8 -1.5 -17t-4.5 -15q-7 -14 -19 -27q-11 -11 -28 -17q-15 -7 -33 -7t-33 7q-16 7 -26 17q-12 13 -18 27q-7 15 -7 32q0 7 1.5 15.5t5.5 15.5q6 14 18 26q5 6 12 10.5t14 7.5q5 2 10.5 3.5t11 2
t11.5 0.5v0zM364 149q17 0 33 -6q15 -6 27 -18q7 -6 11.5 -12.5t7.5 -13.5q7 -16 7 -32t-7 -31q-6 -14 -19 -27q-12 -11 -27.5 -17.5t-32.5 -6.5q-18 0 -33 6q-15 7 -27 18q-12 13 -18 27q-6 15 -6 31.5t6 31.5q3 8 7.5 14t10.5 12q4 4 9 7l8 6q5 3 10 5q4 1 8 2.5t8 2
t8.5 1t8.5 0.5v0zM364 149z" />
    <glyph glyph-name="baike" unicode="&#xe6bb;" 
d="M532 331v-133h432v28q-4 2 -10 6.5t-19 18.5t-18.5 29.5t-1 40t24.5 48.5h24v38v0q-13 3 -35.5 5.5t-84 5t-114.5 -2.5t-110.5 -26t-87.5 -58zM532 612v-250q5 6 15 15.5t48 31t83.5 33t122.5 10t163 -25.5l-137 275q-6 1 -18 2.5t-47 1t-69 -7.5t-79 -28.5t-82 -56.5z
M505 331v-133h-432v28q4 2 10 6.5t19 18.5t18.5 29.5t1 40t-24.5 48.5h-24v38q13 3 35.5 5.5t84 5t114.5 -2.5t110.5 -26t87.5 -58zM505 612v-250q-5 6 -15 15.5t-48 31t-83.5 33t-122.5 10t-163 -25.5l137 275l48 4q144 3 247 -93zM53 160v-48h377q4 -6 12 -14t31 -22
t45 -14v36q-3 1 -8 2t-18 6.5t-23 12t-18.5 17.5t-8.5 24h-389zM983 160v-48h-376q-5 -6 -12.5 -14t-31 -22t-45.5 -14v36q3 1 8.5 2t18.5 6.5t23 12t18 17.5t8 24h389z" />
    <glyph glyph-name="yuedu1" unicode="&#xe65e;" 
d="M917 100l-405 -111v2v-2l-405 111q-22 15 -22 39v597q0 18 12.5 30.5t30.5 12.5v0v0h2q9 0 17 -5l365 -100l365 98q8 5 17 5h2v0v0q18 0 30.5 -13t12.5 -30v-597q0 -11 -5.5 -20t-10.5 -13zM469 597l-298 81v-507l298 -81v507zM853 678l-298 -81v-510l298 84v507z" />
    <glyph glyph-name="muying" unicode="&#xe67f;" 
d="M569 746v37q0 23 -16.5 39.5t-39.5 16.5h-4q-23 0 -39.5 -16.5t-16.5 -39.5v-40q-80 -20 -122 -84h178h4h180l-1.5 2.5t-5 7t-8.5 10t-11.5 12t-14 13t-17 13t-19.5 12t-22.5 10t-24.5 7.5zM758 603q0 -12 -8.5 -21t-21.5 -9h-432q-13 0 -21.5 9t-8.5 21v0q0 13 8.5 21.5
t21.5 8.5h432q13 0 21.5 -8.5t8.5 -21.5v0zM763 29q0 -36 -25 -61.5t-61 -25.5h-330q-36 0 -61 25.5t-25 61.5v424q0 35 25 60.5t61 25.5h330q36 0 61 -25.5t25 -60.5v-424zM261 539h502v-128h-502v128zM331 463v-445v445z" />
    <glyph glyph-name="muying1" unicode="&#xe643;" 
d="M569 739v37q0 23 -16 39.5t-39 16.5h-4q-23 0 -39 -16.5t-16 -39.5v-40q-80 -20 -122 -84h177h4h178q0 1 -5.5 8t-16.5 18.5t-25 23t-34.5 22t-41.5 15.5zM756 596q0 -12 -8.5 -21t-20.5 -9h-428q-13 0 -21.5 9t-8.5 21v0q0 13 8.5 21.5t21.5 8.5h428q12 0 20.5 -8.5
t8.5 -21.5v0zM762 533h-87h-325h-86v-129v0v-381q0 -36 25 -61.5t61 -25.5h325q36 0 61 25.5t25 61.5v381h1v129zM333.5 -3q-6.5 0 -11 4.5t-4.5 10.5v445q0 6 4.5 10.5t11 4.5t11 -4.5t4.5 -10.5v-445q0 -6 -4.5 -10.5t-11 -4.5z" />
    <glyph glyph-name="qq" unicode="&#xe662;" 
d="M537 -3v0h-25h-19h-6q-19 0 -26 -6q-38 -38 -127 -38q-53 0 -101 19q-38 19 -38 44q0 27 44 45q15 4 20.5 10t5.5 15q0 25 -6.5 31.5t-16 22.5t-15.5 22q-10 19 -32 19v0q-5 0 -9 -1t-6.5 -2.5l-7.5 -4.5t-9 -5q-19 -19 -25 -19v0q-5 0 -9 14t-4 37q0 32 13 108
q19 57 63 101q13 13 13 32v13q0 28 19 57q6 6 6 19v6q0 114 83 197q73 82 190 82q114 0 197 -82q82 -93 82 -197v-6q0 -13 6 -19q19 -29 19 -57v-13q0 -25 13 -32q44 -44 63 -101q22 -64 13 -108q0 -41 -19 -50q-6 0 -25 18q-13 13 -32 13h-6q-22 0 -32 -19q-6 -19 -32 -44
q-14 -15 -6 -32q0 -6 3 -10t9 -9.5t7 -5.5q44 -18 44 -45q0 -25 -38 -44t-101 -19q-79 0 -127 38q6 0 -4 4q-5 2 -9 2v0v0zM683 -123q95 0 152 38q64 42 64 101q0 35 -19 64q19 0 25 6q54 18 64 95q9 67 -19 152q-16 56 -70 121v0q0 41 -19 88q0 146 -102 248
q-101 101 -247 101t-247 -101q-102 -112 -102 -247q-19 -39 -19 -89v-7q-44 -36 -70 -114q-28 -85 -19 -152q10 -73 64 -95q3 0 12.5 -3t12.5 -3q-19 -29 -19 -64q0 -65 64 -101q57 -38 145 -38q106 0 159 44h32q62 -44 158 -44v0v0z" />
    <glyph glyph-name="gouwuche1" unicode="&#xe656;" 
d="M834 171q16 0 28 12t12 28.5t-12 28.5t-28 12h-458l-122 496q-3 14 -14 23t-25 9h-109q-17 0 -29 -12t-12 -28.5t12 -28.5t29 -12h77l122 -496q3 -14 14 -23t25 -9h490v0zM834 171zM824 333q12 0 23 11t16 25l94 291q5 17 -6 32q-2 4 -6.5 5.5t-7.5 2t-9.5 0t-9.5 -0.5
h-651q-16 0 -28 -12t-12 -28.5t12 -28.5t28 -12h595l-67 -202h-487q-17 0 -29 -12.5t-12 -29t12 -29t29 -12.5h516v0zM824 333zM408 143v0q32 0 54.5 -22.5t22.5 -55t-22.5 -55t-55 -22.5t-55 22.5t-22.5 55t22.5 55t55.5 22.5v0zM408 143zM762 143v0q32 0 55 -22.5t23 -55
t-23 -55t-55 -22.5t-54.5 22.5t-22.5 55t22.5 55t54.5 22.5v0zM762 143z" />
    <glyph glyph-name="jingyan" unicode="&#xe691;" 
d="M978 489l-322 46l-144 292l-144 -292l-322 -46l233 -227l-55 -321l288 151l288 -151l-55 321zM515 137l-217 221l158 146l92 -5l-156 -121l110 -136l143 110l-64 41l-51 -85l-65 68l146 109l119 -121z" />
    <glyph glyph-name="yanzhengma" unicode="&#xe666;" 
d="M512 834q82 -64 169.5 -96t214.5 -32v-332q0 -58 -35 -134.5t-88.5 -143t-124.5 -113t-136 -46.5t-136 46.5t-124.5 113t-88.5 143t-35 134.5v332q126 0 214 32t170 96v0zM512 759q-68 -53 -141.5 -80t-178.5 -27v-276q0 -49 29 -112.5t74 -119t104 -94t113 -38.5
t113 38.5t103.5 94t74 119t29.5 112.5v276q-105 0 -178.5 27t-141.5 80v0zM737 518l-24 24q-5 5 -12.5 4t-13.5 -7l-229 -230l-122 116q-6 6 -13.5 7t-12.5 -4l-24 -25q-5 -5 -3.5 -12.5t7.5 -13.5l153 -145q4 -5 10 -6q11 -5 21 6l260 260q6 6 7 13.5t-4 12.5z" />
    <glyph glyph-name="weixin2" unicode="&#xe619;" 
d="M512 29q-88 0 -169 32l-209 -94q-4 -2 -9 -2q-7 0 -13 5q-11 9 -7 22l51 208q-74 98 -74 216q0 105 57.5 194t156.5 141t216 52t216 -52t156.5 -141t57.5 -194t-57.5 -194t-156.5 -141t-216 -52v0zM512 760q-105 0 -194 -46t-141 -125.5t-52 -172.5q0 -108 71 -198
q7 -8 4 -18l-43 -176l177 80q8 4 16 0q78 -32 162 -32q105 0 194 46t141 125.5t52 172.5t-52 172.5t-141 125.5t-194 46v0zM362 459q-9 0 -15.5 6.5t-6.5 15.5t6.5 15t15 6t15 -6t6.5 -15t-6.5 -15.5t-14.5 -6.5v0zM662 459q-8 0 -14.5 6.5t-6.5 15.5t6.5 15t15 6t15 -6
t6.5 -15t-6.5 -15.5t-15.5 -6.5v0zM362 438q-18 0 -30.5 12.5t-12.5 30.5t12.5 30.5t30 12.5t30.5 -12.5t13 -30.5t-13 -30.5t-30 -12.5v0zM662 438q-17 0 -30 12.5t-13 30.5t13 30.5t30.5 12.5t30 -12.5t12.5 -30.5t-12.5 -30.5t-30.5 -12.5v0z" />
    <glyph glyph-name="iconfontrongyuzheng" unicode="&#xe694;" 
d="M637 226q2 -1 5 -1h1v0v0q2 0 4 1h1q3 1 4 3l77 76l76 -76q2 -2 4 -3h1q2 -1 4 -1v0v0h1q3 0 5 1t4 3q4 4 4 9v391v65v45q0 6 -4 10t-9 4h-172v0q-1 0 -4 -1h-0.5h-1.5q-8 -4 -8 -13v-45v-65v-391q0 -9 8 -12zM176 471q0 -5 4 -9t9 -4h216q5 0 9 4t4 9t-4 9t-9 4h-216
q-5 0 -9 -4t-4 -9zM405 378h-216q-5 0 -9 -3.5t-4 -9t4 -9t9 -3.5h216q5 0 9 3.5t4 9t-4 9t-9 3.5zM405 273h-216q-5 0 -9 -3.5t-4 -9t4 -9.5t9 -4h216q5 0 9 4t4 9.5t-4 9t-9 3.5zM866 687v-66q33 -10 43 -19v-518q-182 25 -364 0v518q10 10 46 19v66q-50 -11 -78 -30
q-64 44 -214 44q-45 0 -86.5 -5.5t-78.5 -16t-59 -29.5t-22 -44v-559q0 -15 11.5 -25t26.5 -7q96 17 208 17t209 -17h1h1h2l0.5 -0.5l0.5 -0.5q3 0 5 1h1q96 17 208 17t209 -17q2 -1 5 -1q12 0 21 8q11 10 11 25v559q0 56 -107 81zM481 84q-87 12 -182 12t-182 -12v518
q12 12 61.5 23.5t120.5 11.5t120.5 -11.5t61.5 -23.5v-518z" />
    <glyph glyph-name="pinglun" unicode="&#xe651;" 
d="M779 778h-509q-49 0 -84 -37.5t-35 -87.5v-330q0 -49 33.5 -80t83.5 -31h47v-141l165 141h307q50 0 84 31t34 80v330q0 50 -38 87.5t-88 37.5zM858 323q0 -31 -21 -47.5t-50 -16.5h-307h-17l-13 -11l-87 -75v39v47h-48h-47q-29 0 -49.5 16.5t-20.5 47.5v330
q0 31 21.5 54.5t50.5 23.5h509q30 0 54.5 -24t24.5 -54v-330zM339 495zM292 495q0 20 14 33.5t33.5 13.5t33 -13.5t13.5 -33.5t-13.5 -33.5t-33 -13.5t-33.5 13.5t-14 33.5zM528 495zM480 495q0 20 14 33.5t33.5 13.5t33.5 -13.5t14 -33.5t-14 -33.5t-33.5 -13.5t-33.5 13.5
t-14 33.5zM716 495zM669 495q0 20 14 33.5t33.5 13.5t33 -13.5t13.5 -33.5t-13.5 -33.5t-33 -13.5t-33.5 13.5t-14 33.5z" />
    <glyph glyph-name="tuichu1" unicode="&#xe64c;" 
d="M733 236l-31 32l116 120l-116 112l31 32l148 -148zM477 415h364v-53h-364v53zM726 -63h-596v894h596v-162h-45v117h-506v-804h506v117h45v-162z" />
    <glyph glyph-name="dizhi" unicode="&#xe69b;" 
d="M512 831q-97 0 -179 -48t-130 -130t-48 -179q0 -56 29 -127.5t70 -134.5t82 -118t70 -87l29 -32q32 -38 77.5 -38t76.5 38q12 12 31 33.5t67 84.5t85 121t67 131t30 129q0 97 -48 179t-130 130t-179 48v0v0zM512 320q-68 0 -116.5 48.5t-48.5 116.5t48.5 116.5
t116.5 48.5t116.5 -48.5t48.5 -116.5t-48.5 -116.5t-116.5 -48.5v0v0zM512 320z" />
    <glyph glyph-name="nv1" unicode="&#xe757;" 
d="M572.5 607q-71.5 0 -123 -51t-51.5 -123t51.5 -123t123 -51t122.5 51t51.5 123t-51 123t-123 51zM852 894h-680q-70 0 -120 -50t-50 -120v-680q0 -70 50 -120t120 -50h680q70 0 120 50t50 120v680q0 70 -50 120t-120 50zM572 184q-90 0 -160 60l-36 -36l59 -59l-53 -52
l-58 58l-68 -68l-53 53l68 68l-62 62l53 52l62 -62l39 40q-39 61 -39 133q0 102 73 175t175.5 73t175.5 -73t73 -175.5t-73 -175.5t-176 -73z" />
    <glyph glyph-name="fenxi" unicode="&#xe640;" 
d="M960 448q-29 0 -46.5 17.5t-17.5 46.5v38l-275 -275v0q-19 -19 -45 -19t-45 19v0l-83 83l-147 -147v0q-19 -19 -45 -19q-29 0 -46.5 17.5t-17.5 46.5q0 26 19 45v0l192 192v0q19 19 45 19t45 -19v0l83 -83l230 230h-38q-29 0 -46.5 17.5t-17.5 46.5t17.5 46.5t46.5 17.5
h192q29 0 46.5 -17.5t17.5 -46.5v-192q0 -29 -17.5 -46.5t-46.5 -17.5zM960 128q29 0 46.5 -17.5t17.5 -46.5t-17.5 -46.5t-46.5 -17.5h-896q-29 0 -46.5 17.5t-17.5 46.5v640q0 29 17.5 46.5t46.5 17.5t46.5 -17.5t17.5 -46.5v-576h832z" />
    <glyph glyph-name="dizhi1" unicode="&#xe6a2;" horiz-adv-x="1025" 
d="M840 507q0 88 -44 163t-119.5 118.5t-165 43.5t-165 -43.5t-119.5 -118.5t-44 -163q0 -87 44 -163v0l284 -408l285 408v0q44 75 44 163zM511 344q-68 0 -116 47.5t-48 115t48 115.5t116 48t116.5 -48t48.5 -115.5t-48 -115t-117 -47.5v0z" />
    <glyph glyph-name="mingxing-copy" unicode="&#xe66a;" horiz-adv-x="1025" 
d="M512.5 895q106.5 0 199.5 -40t162.5 -109.5t109.5 -162.5t40 -199.5t-40 -199.5t-109.5 -162.5t-162.5 -109.5t-199.5 -40t-199.5 40t-162.5 109.5t-109.5 162.5t-40 199.5t40 199.5t109.5 162.5t162.5 109.5t199.5 40zM854 424q3 4 6 10t3 14q0 11 -7 20q-5 7 -10 9.5
t-10 3.5q-5 2 -9 2h-205q-5 0 -9 4q-6 4 -6 8l-58 205q-2 5 -3.5 9.5t-4.5 9.5q-4 4 -10.5 9t-17.5 6q-12 -1 -19 -6t-10 -9q-3 -5 -4.5 -9.5t-3.5 -9.5l-58 -205q0 -4 -6 -8q-4 -4 -9 -4h-197q-5 0 -11 -0.5t-12 -3.5q-9 -3 -14 -11q-9 -9 -7 -20q0 -8 2.5 -14t5.5 -10
q5 -6 15 -11l159 -104q2 -2 4.5 -7t2.5 -11v-3l-63 -201q-1 -5 -2 -9t-1 -10q0 -4 1 -9.5t7 -12.5q4 -6 11.5 -9.5t13.5 -3.5q13 1 19.5 4.5t12.5 8.5l155 132q1 3 9 3q5 0 7 -2l163 -134q8 -4 14.5 -7.5t17.5 -4.5h1q6 0 13.5 3.5t11.5 9.5q5 7 6.5 12t1.5 9q0 6 -1 10.5
t-3 9.5l-70 203q-1 1 -1 3q0 5 2.5 10t4.5 6l158 104q9 4 14 11z" />
    <glyph glyph-name="cnbangzhu" unicode="&#xe698;" 
d="M754 345zM512 832q-91 0 -174 -35.5t-143 -95.5t-95.5 -143t-35.5 -174t35.5 -174t95.5 -143t143 -95.5t174 -35.5t174 35.5t143 95.5t95.5 143t35.5 174t-35.5 174t-95.5 143t-143 95.5t-174 35.5zM506.5 81q-19.5 0 -33.5 14t-14 33.5t14 33.5t33.5 14t33.5 -14
t14 -33.5t-14 -33.5t-33.5 -14zM599 338q-14 -9 -24 -21t-14 -22.5t-6 -20t-2 -15.5l1 -6v-5q0 -22 -14 -31.5t-33.5 -9.5t-33.5 13.5t-14 32.5v10q-1 43 16.5 73.5t60.5 60.5q77 52 77 124q0 25 -26.5 49.5t-62.5 24.5q-52 0 -84.5 -25t-32.5 -71l0.5 -0.5l0.5 -0.5
q0 -20 -14 -33.5t-33.5 -13.5t-33.5 13.5t-14 33.5q0 89 59.5 139t152.5 50q82 0 134 -48t52 -121q0 -46 -29.5 -96t-82.5 -84z" />
    <glyph glyph-name="chanpin" unicode="&#xe677;" horiz-adv-x="1025" 
d="M541 -43l1 488l397 139v-487zM86 669l426 142l427 -142l-427 -142zM483 -43l-398 140v487l398 -139v-488z" />
    <glyph glyph-name="qiandai" unicode="&#xe6a3;" 
d="M509 -125q-236 0 -344 85t-108 263q0 144 98 277.5t237 182.5h234q138 -49 236.5 -182.5t98.5 -277.5q0 -178 -108 -263t-344 -85v0v0zM634 259v0q16 0 27 11.5t11 27.5t-11 27t-27 11v0h-77v1.5v1.5l90 93q18 20 -7 45q-12 12 -27.5 13.5t-24.5 -8.5l-78 -83l-85 85
q-8 8 -21.5 5.5t-24.5 -13.5t-13.5 -25t5.5 -22l86 -86q-2 -3 -3 -7h-70v0v0q-16 0 -27.5 -11t-11.5 -27t11.5 -27.5t27.5 -11.5v0v0h77v-38h-77v0v0q-16 0 -27.5 -11.5t-11.5 -27t11.5 -27t27.5 -11.5v0v0h77v-39h1q-1 -4 -1 -9q0 -20 14 -34t34 -14t34 14t14 34q0 5 -1 9
v0v39h78q16 0 27 11.5t11 27t-11 27t-27 11.5v0h-78v38h78v0v0zM691 836l-8 -10v0v-1l-68 -85h-231l-68 85q-1 1 -1 1.5t-1 0.5l-7 9l1 3q-1 5 -1 7q0 20 18 27l1 2q95 18 173 19q37 0 80 -5t68 -10l25 -4l1 -2q19 -8 19 -27q0 -2 -2 -7l1 -3v0z" />
    <glyph glyph-name="meizhuang" unicode="&#xe66b;" 
d="M639 653q13 16 1 33q-5 8 -13.5 18.5t-36 35t-58 43.5t-79.5 34t-100.5 15t-100 -15.5t-79 -34.5t-57 -44t-34.5 -35.5t-13 -18.5q-12 -17 2 -33l196 -231q1 -1 2.5 -2l1.5 -1l-46 -418q-5 -20 9 -39q19 -24 67 -24h126q28 0 48.5 14.5t20.5 41.5q0 28 -46 427l1 0.5
l1 0.5zM299 469l-25 102q-3 11 3 21t17.5 12.5t21.5 -3.5t12 -17l28 -116zM316 315l6 56h77l6 -56h-89zM436 573l-20 -105h-57l21 115q3 11 12.5 17.5t20.5 4.5t18 -11.5t5 -20.5zM921 471h-11v300q0 61 -42 61q-14 0 -27.5 -8t-37.5 -27q-27 -22 -42 -31q-30 -20 -44.5 -46
t-16.5 -47v-202h-18q-16 0 -27.5 -11.5t-11.5 -27.5v-457q0 -16 11.5 -27.5t27.5 -11.5h239q16 0 27.5 11.5t11.5 27.5v457q0 16 -11.5 27.5t-27.5 11.5zM870 82q0 -12 -8 -20t-19.5 -8t-20 8t-8.5 20v253q0 12 8.5 20t20 8t19.5 -8t8 -20v-253z" />
    <glyph glyph-name="mtbd" unicode="&#xe639;" 
d="M636 405h-3q44 24 70.5 66.5t26.5 93.5q0 75 -54.5 128.5t-131.5 53.5q-72 0 -125.5 -47.5t-59.5 -117.5q-18 27 -47 42.5t-63 15.5q-55 0 -93.5 -37.5t-38.5 -90.5q0 -33 15.5 -61t42.5 -46h-3q-31 0 -52.5 -21t-21.5 -50v-232q0 -30 21.5 -51t52.5 -21h464
q31 0 52.5 21t21.5 51v232q0 29 -21.5 50t-52.5 21zM322 405q44 30 55 79q26 -51 79 -79h-134zM414 564.5q0 52.5 38 90t92 37.5t92 -37.5t38 -90t-38 -89.5t-92 -37t-92 37t-38 89.5zM544 664q-42 0 -72 -29t-30 -70q0 -42 30 -71t72 -29t72 29t30 70.5t-30 70.5t-72 29z
M743 259v-98l185 -95v297z" />
    <glyph glyph-name="chuanbo" unicode="&#xe62b;" 
d="M863 384q0 116 -68 211q-8 10 -21 12.5t-23.5 -5.5t-13 -21t5.5 -24q56 -78 56 -173t-56 -173q-8 -11 -5.5 -24t12.5 -21q9 -6 19 -6q16 0 26 13q68 95 68 211zM271.5 602q-10.5 8 -23.5 5.5t-21 -12.5q-68 -95 -68 -211t68 -211q10 -13 26 -13q10 0 19 6q10 8 12.5 21
t-5.5 24q-56 78 -56 173t56 173q8 11 5.5 24t-13 21zM851 757q-8 10 -21.5 11t-23.5 -8t-11 -22t8 -23q61 -69 93 -154.5t32 -176.5t-32 -176.5t-93 -154.5q-9 -10 -8 -23t11 -22q9 -8 21 -8q15 0 24 11q68 78 104.5 174t36.5 199t-36.5 199t-104.5 174zM97 384
q0 91 32.5 176.5t92.5 154.5q9 10 8 23t-11 22t-23 8t-22 -11q-68 -78 -104.5 -174t-36.5 -199t36.5 -199t104.5 -174q9 -11 24 -11q12 0 21 8q10 9 11 22t-8 23q-60 69 -92.5 154.5t-32.5 176.5zM514.5 608q-92.5 0 -158.5 -65.5t-66 -158.5q0 -48 19.5 -91.5t55.5 -75.5
q10 -9 23 -8t22 11t8 23t-10 22q-54 48 -54 119q0 66 47 113t113 47t113 -47t47 -113t-47 -113t-113 -47h-11q-23 0 -30 -21q-12 -33 -36 -58q-10 -10 -9.5 -23t10 -22.5t22.5 -9.5t23 10q26 27 42 60q89 4 151 69t62 155q0 93 -65.5 158.5t-158 65.5z" />
    <glyph glyph-name="yanjing" unicode="&#xe654;" 
d="M643 468q0 -22 -15 -37.5t-36 -15.5t-36 15.5t-15 37.5t15 37.5t36 15.5q2 0 5.5 -0.5t4.5 -1.5q-41 31 -90 31q-65 0 -111.5 -48.5t-46.5 -117.5q0 -68 46.5 -116.5t111.5 -48.5t111.5 48.5t46.5 116.5q0 52 -29 95q2 -9 2 -11v0zM950 400q-28 53 -73.5 103t-101.5 90
t-125 64t-138 24t-138 -24t-125 -64t-101 -90t-73 -103l-9 -16l9 -16q28 -53 73 -103t101 -90t125 -64t138 -24t138 24t125 64t101.5 90t73.5 103l8 16l-8 16v0zM512 153q-111 0 -214.5 69t-158.5 162q55 94 158.5 162.5t214.5 68.5t214.5 -68.5t158.5 -162.5
q-55 -93 -158.5 -162t-214.5 -69v0zM512 153z" />
    <glyph glyph-name="xiuchang" unicode="&#xe680;" 
d="M768 501q-18 -23 -75 -59.5t-104 -62.5l-48 -25q7 22 18.5 57t39.5 103t46 90q32 38 72.5 49.5t65.5 -10t21 -63.5t-36 -79v0v0v0v0zM796 293q-64 -12 -268 34q20 13 51 32t95.5 53t93.5 40q48 8 86.5 -9t44 -50t-24.5 -62.5t-78 -37.5v0v0v0v0zM684 116q-25 14 -71 64
t-79 92t-33 43q23 -3 59 -8.5t107.5 -21t96.5 -30.5q43 -24 61 -62t1.5 -67t-58.5 -32t-84 22v0v0v0v0zM485 52q-10 28 -13.5 95.5t-1.5 121.5l2 54q16 -17 40 -44.5t69 -85.5t55 -86q16 -46 6 -86.5t-41.5 -52t-65.5 13t-50 70.5v0v0v0v0zM292 132q10 28 51 82t76.5 94.5
t35.5 39.5q1 -23 2 -59.5t-2 -110t-13 -101.5q-16 -46 -50 -70.5t-65.5 -13.5t-41.5 52t7 87v0v0v0v0zM195 318q25 15 92 30t117 22.5t55 7.5l-37.5 -47.5t-72 -83t-74.5 -68.5q-42 -25 -84 -22t-58.5 32t2 67t60.5 62v0v0v0v0zM240 523q29 -5 89 -36t105 -60l46 -28
q-23 -5 -58.5 -12.5t-108 -17.5t-101.5 -5q-48 9 -78 38.5t-24.5 62t44 50t86.5 8.5v0v0v0v0zM406 651q18 -22 44 -84.5t43 -114.5l17 -51q-21 11 -53 28t-94 56.5t-80 62.5q-32 37 -36 79t21 63.5t65.5 10t72.5 -49.5v0v0v0v0zM614 642q0 -29 -20 -94t-40 -115l-20 -50
q-9 22 -22.5 56t-35.5 104t-22 99q0 49 23.5 84t56.5 35t56.5 -35t23.5 -84v0v0v0z" />
    <glyph glyph-name="shuju1" unicode="&#xe64e;" 
d="M152 26v805h-87v-892h893v87h-806zM566 487l131 -131l186 186l75 -73v210h-216l78 -76l-123 -123l-131 130l-292 -292l61 -62z" />
    <glyph glyph-name="icon-phone" unicode="&#xe697;" 
d="M729 897h-433q-45 0 -76.5 -31.5t-31.5 -75.5v-810q0 -44 31.5 -76.5t76.5 -32.5h433q45 0 76.5 31t31.5 75v813q0 44 -31.5 75.5t-76.5 31.5zM440 861h145v-35h-145v35zM512 -58q-15 0 -25.5 10t-10.5 25t10.5 25t25.5 10t25.5 -10t10.5 -25t-10.5 -25t-25.5 -10z
M765 83h-505v707h505v-707z" />
    <glyph glyph-name="jiantou-copy" unicode="&#xe6a5;" 
d="M124 309l47 -49l339 349l338 -349l47 49l-385 396z" />
    <glyph glyph-name="xingzhuang5kaobei2" unicode="&#xe692;" 
d="M648 8q0 -56 -39.5 -96t-96.5 -40t-96.5 40t-39.5 96h272v0v0v0zM603 807q0 37 -26.5 63t-64.5 26t-64.5 -26t-26.5 -63q0 -7 1 -14q-98 -33 -157.5 -113.5t-59.5 -193.5v-170q0 -6 -1.5 -16t-5.5 -36t-10 -45.5t-16.5 -36t-22.5 -16.5q-20 0 -33.5 -13t-13.5 -31.5
t13.5 -31.5t32.5 -13h364h319h45q19 0 32.5 13t13.5 31.5t-13.5 31.5t-32.5 13q-20 0 -34 39.5t-18.5 70.5t-4.5 40v170q0 115 -58 194.5t-159 112.5q1 7 1 14v0v0z" />
    <glyph glyph-name="rerun" unicode="&#xe60f;" 
d="M1012 405l-148 -148q-12 -12 -29 -12t-29 12l-148 148q-12 12 -12 29t12 29t28.5 12t28.5 -12l79 -79v0q0 97 -47.5 179t-130 129.5t-179 47.5t-178.5 -47.5t-130 -129.5t-48 -179t48 -179t130 -129.5t179 -47.5q147 0 252 104q12 12 28.5 12t28.5 -12t12 -29t-12 -28
q-62 -62 -141.5 -95.5t-167.5 -33.5q-89 0 -170 35t-140 93.5t-93.5 139.5t-34.5 170t34.5 170t93.5 139.5t140 93.5t170 35t170 -35t139.5 -93.5t93.5 -139.5t35 -170v0l79 79q12 12 28.5 12t28.5 -12t12 -29t-12 -29zM624 390l-320 192v-384z" />
    <glyph glyph-name="pinpai1" unicode="&#xe678;" 
d="M828 701q-63 63 -145 97t-171.5 34t-171 -34t-145 -97t-97.5 -145t-34 -172q0 -133 73 -244q7 -10 19.5 -13t23 4t13.5 20t-4 23q-63 96 -63 210q0 105 52 193.5t140.5 140.5t193 52t193.5 -52t140.5 -140.5t51.5 -193t-51.5 -193.5t-140.5 -140.5t-193 -51.5
q-108 0 -199 56q-11 6 -23.5 3t-19.5 -14t-4 -23.5t14 -19.5q107 -64 232 -64q89 0 171 34t145 97t97 145t34 171.5t-34 171.5t-97 145zM670.5 418q28.5 30 28.5 81q0 24 -8.5 46t-25 38.5t-37.5 25.5q-18 8 -39 11q-23 3 -53 3h-148q-30 0 -44 -14t-14 -42v-347
q0 -26 13 -41q12 -15 34 -15q20 0 33 14q12 13 12 42v146h33q23 0 41 -7q15 -6 31 -24q15 -18 35 -52l37 -60q13 -22 20 -33q8 -11 18.5 -18.5t25.5 -7.5q13 0 23 5.5t15.5 14t5.5 17.5t-9.5 31.5t-27 51t-39.5 54t-47 37.5q58 13 86.5 43zM595 455q-12 -13 -35 -19
q-20 -5 -55 -5h-83v123h86q46 0 63 -7q16 -7 25.5 -21t9.5 -33q0 -24 -11 -38z" />
    <glyph glyph-name="jiaoyu01" unicode="&#xe62c;" 
d="M1001 289q-26 -21 -84 -67q-14 10 -42 32.5t-42 34.5q4 3 5 4l16.5 13.5t24.5 19.5q4 3 4 7v120v3q-1 0 -4 -1.5t-5 -1.5q-163 -71 -304 -116q-23 -7 -54 -13q-7 -2 -22 2q-43 10 -130 41q-161 59 -267 110q-11 6 -61 34q-3 1 -10 8q-6 6 0 11q14 12 20 15q79 40 101 49
q172 74 331 125q3 1 6.5 2t7.5 2t7 2q14 4 28 -1q130 -43 139 -47q153 -55 259 -104q10 -5 62 -33q4 -2 9 -7q9 -8 0 -15q-1 -2 -26 -19v0v0q-2 -1 -6.5 -3t-7.5 -4t-4 -4t-1 -21q0 -121 -1 -131q0 -7 5 -11q7 -5 46 -36zM225 353l7 -3q127 -51 213 -78q28 -9 59 -16
q11 -2 23 1q86 26 121 39q5 1 144 54q1 0 7 2v-7v-233q0 -9 -8 -16q-62 -50 -146 -75q-84 -24 -180 -17q-77 6 -145 32q-49 18 -89 46q-6 4 -6 11v252v8z" />
    <glyph glyph-name="hudong" unicode="&#xe6b0;" 
d="M152 539q0 111 81 189.5t195 78.5h1v-74h-1q-82 0 -140.5 -57t-58.5 -137v-2h94l-129 -125l-129 125h87v2v0v0zM152 539zM873 240q0 -111 -80.5 -189.5t-194.5 -78.5h-1v75h1q82 0 140.5 56.5t58.5 136.5v2h-94l129 125l129 -125h-88v-2v0v0zM873 240zM514 240
q0 40 -29.5 68.5t-70.5 28.5h-249q-41 0 -70.5 -28.5t-29.5 -68.5v-171q0 -40 29.5 -68.5t70.5 -28.5h249q41 0 70.5 28.5t29.5 68.5v171v0zM426 82q0 -10 -7 -17t-18 -7h-223q-11 0 -18 7t-7 17v145q0 10 7 17t18 7h223q11 0 18 -7t7 -17v-145v0zM426 82zM958 710
q0 40 -29.5 68.5t-70.5 28.5h-249q-42 0 -71 -28t-29 -69v-170v0q0 -40 29 -68.5t71 -28.5h249q41 0 70.5 28.5t29.5 68.5v170v0zM870 552q0 -10 -7.5 -17t-17.5 -7h-223q-11 0 -18 7t-7 17v146q0 10 7 17t18 7h223q10 0 17.5 -7t7.5 -17v-146v0zM870 552z" />
    <glyph glyph-name="qiaquan" unicode="&#xe6a6;" horiz-adv-x="1025" 
d="M1024 498v0v6v16v22v137q0 18 -12.5 31t-30.5 13h-937q-18 0 -30.5 -13t-12.5 -31v-137v-22v-16v-6v0q49 0 83 -34t34 -82.5t-34 -82.5t-83 -34v0v-6v-16v-22v-137q0 -18 12.5 -31t30.5 -13h937q18 0 30.5 13t12.5 31v137v22v16v6v0q-49 0 -83 34t-34 82.5t34 82.5t83 34
zM727 179h-429q-18 0 -30.5 11.5t-12.5 27.5t12.5 27.5t30.5 11.5h429q18 0 30.5 -11.5t12.5 -27.5t-12.5 -27.5t-30.5 -11.5zM727 343h-429q-18 0 -30.5 11t-12.5 27.5t12.5 27.5t30.5 11h429q18 0 30.5 -11t12.5 -27.5t-12.5 -27.5t-30.5 -11zM727 506h-429
q-18 0 -30.5 11.5t-12.5 27.5t12.5 27.5t30.5 11.5h429q18 0 30.5 -11.5t12.5 -27.5t-12.5 -27.5t-30.5 -11.5z" />
    <glyph glyph-name="redpacket" unicode="&#xe63a;" 
d="M891 584q-13 0 -22.5 -9.5t-9.5 -22.5v-540q0 -18 -12.5 -30.5t-30.5 -12.5h-608q-18 0 -30.5 12.5t-12.5 30.5v540q0 13 -9.5 22.5t-22.5 9.5t-22 -9.5t-9 -22.5v-540q0 -44 31 -75t75 -31h608q44 0 75 31t31 75v540q0 13 -9 22.5t-22 9.5zM816 862h-608q-44 0 -75 -31
t-31 -75v-105q0 -11 7 -19.5t19 -11.5l379 -68q3 -1 5.5 -1t5.5 1l378 68q12 3 19 11.5t7 19.5v105q0 44 -31 75t-75 31zM859 678l-347 -63l-347 63v78q0 18 12.5 30.5t30.5 12.5h608q18 0 30.5 -12.5t12.5 -30.5v-78zM395 211q-13 0 -22.5 -9.5t-9.5 -22.5t9.5 -22t22.5 -9
h85v-89q0 -13 9.5 -22t22.5 -9t22 9t9 22v89h85q14 0 23 9t9 22t-9 22.5t-23 9.5h-85v34h85q14 0 23 9t9 22t-9 22.5t-23 9.5h-77l98 98q9 9 9 22t-9.5 22t-22.5 9t-22 -9l-91 -91l-94 91q-9 10 -22 9.5t-22.5 -9.5t-9 -22.5t9.5 -22.5l100 -97h-80q-13 0 -22.5 -9.5
t-9.5 -22.5t9.5 -22t22.5 -9h85v-34h-85z" />
    <glyph glyph-name="mima01" unicode="&#xe667;" 
d="M763 499h-28v108q0 99 -63.5 165.5t-160.5 66.5t-159.5 -67t-62.5 -165v-108h-28q-46 0 -78.5 -33t-32.5 -80v-339q0 -47 32.5 -80t78.5 -33h502q46 0 78.5 33t32.5 80v339q0 47 -32.5 80t-78.5 33zM345 607q0 74 46 124.5t120 50.5t121 -50t47 -125v-108h-334v108z
M818 47q0 -23 -16 -39.5t-39 -16.5h-502q-23 0 -39 16.5t-16 39.5v339q0 24 16 40.5t39 16.5h502q23 0 39 -16.5t16 -40.5v-339zM512 330q-23 0 -39.5 -16.5t-16.5 -40.5q0 -32 28 -49v-92q0 -12 8 -20t20 -8t20 8t8 20v92q28 17 28 49q0 24 -16.5 40.5t-39.5 16.5z" />
    <glyph glyph-name="toupiao" unicode="&#xe63b;" 
d="M955 154h-394l335 340l-331 335l-410 -415l256 -260h-346l-46 -113h986zM447 512l56 -56l126 128l44 -44l-170 -173v0h-1l-98 102zM736 74h-448v41h448v-41v0z" />
    <glyph glyph-name="dianzan" unicode="&#xe652;" 
d="M890.5 466q-32.5 41 -84.5 41h-189q16 45 19 91q6 72 -21 121q-33 60 -106 71q-32 5 -55 -12q-14 -11 -23 -31.5t-12 -37t-8 -49.5q-11 -87 -30 -120q-31 -51 -109 -51h-74q-36 0 -62 -26t-26 -63v-335q0 -36 26 -62t62 -26h535q37 0 66.5 23.5t38.5 59.5l73 315
q12 50 -20.5 91zM169 65v335q0 12 8.5 21t20.5 9h62v-394h-62q-12 0 -20.5 8.5t-8.5 20.5zM854 388l-74 -314q-3 -17 -16.5 -27.5t-30.5 -10.5h-414v398q76 14 112 76q26 43 39 142q5 41 9 56q5 18 11 23q3 2 11 1q44 -7 63 -41q18 -39 13.5 -89t-24.5 -94q-9 -21 3.5 -40.5
t35.5 -19.5h214q24 0 38.5 -18.5t9.5 -41.5z" />
    <glyph glyph-name="yanjing1" unicode="&#xe624;" horiz-adv-x="1537" 
d="M1533 605q0 7 -7 9t-10 2q-94 15 -144 19q-37 2 -116 6q-120 5 -223 -8q-77 -10 -133 -28q-11 -3 -33 -11t-33 -11q-57 -18 -105 -9q-27 5 -64 17q-74 23 -114 31q-113 21 -224 20q-94 -1 -162 -9q-48 -5 -128 -16q-6 -1 -27 -7q-7 -2 -8 -9q-2 -58 -2 -76q0 -2 1 -11
q1 -5 6 -7q6 -3 9 -5q16 -11 26 -39q2 -5 3.5 -11t3.5 -12.5t3 -10.5q0 -2 2.5 -9.5t3.5 -11.5q3 -13 10 -46.5t12 -51.5q12 -54 31 -91q27 -50 75 -70q28 -12 63 -18q55 -8 118 -4q66 5 118 21q48 14 78 40q52 44 85 106q26 48 50 127q10 30 12 37q11 28 39 33q10 1 19 1
q27 -2 38 -16q8 -9 11 -18q10 -21 14 -36q26 -82 69 -155q37 -63 96 -96q41 -22 94 -32q68 -14 148 -10q50 2 89 14q50 15 76 48q17 22 30 53q18 45 36 123q7 32 14 61l9 31q6 21 11 29q13 16 24 20q6 2 7.5 9t1.5 11v45q-1 6 -1.5 18t-1.5 14zM64.5 557q-29.5 0 -29.5 7.5
t29.5 7.5t29.5 -7.5t-29.5 -7.5zM633 398q-15 -64 -50 -124q-21 -35 -44 -58q-32 -30 -84 -44q-96 -25 -191 -11q-11 2 -38 9q-37 9 -60 43q-22 33 -33 80q-11 45 -18 112q-3 32 1 65q4 27 5 33q13 58 70 72q49 13 106 18q7 0 70 4q97 -1 162 -16q43 -10 60 -19
q15 -8 27 -17q18 -16 23 -43q7 -47 -6 -104zM1420 415q-2 -84 -29 -155q-13 -34 -34 -54q-21 -21 -62 -32q-35 -9 -88 -10q-62 0 -133 15q-63 13 -106 66q-51 64 -71 149q-10 48 -10 78q1 17 4 33q7 40 47 57q31 12 80 21.5t92 12.5q5 1 64 3q112 -5 175 -23q10 -3 29 -12
q14 -7 21 -20q10 -21 14 -31q5 -13 6 -37q2 -45 1 -61v0zM1471 557q-30 0 -30 7.5t29.5 7.5t29.5 -7.5t-29 -7.5v0zM1471 557z" />
    <glyph glyph-name="paixingbang1" unicode="&#xe648;" 
d="M916 -3h-808q-15 0 -18 -12q-2 -7 4 -12.5t14 -5.5h808q16 0 18 13q1 7 -4.5 12t-13.5 5zM714 48h197q7 0 12.5 5t5.5 13v272q0 8 -5.5 13t-12.5 5h-197q-12 0 -12 -18v-272q0 -18 12 -18v0v0zM732 326h167v-248h-167v248zM416 48h192q7 0 12.5 5t5.5 13v722q0 13 -18 13
h-192q-18 0 -18 -13v-722q0 -8 5.5 -13t12.5 -5zM429 771h166v-693h-166v693zM108 48h197q7 0 12 5t5 13v434q0 7 -5 12.5t-12 5.5h-197q-13 0 -13 -18v-434q0 -18 13 -18v0zM125 488h167v-410h-167v410z" />
    <glyph glyph-name="renzheng" unicode="&#xe695;" 
d="M512 -106q-42 0 -97 24t-109 66.5t-100 95t-74.5 116.5t-28.5 123v413h41q8 0 27.5 1.5t67.5 11.5t90 27q95 39 159 84l24 18l24 -18q5 -3 20 -13t55.5 -31.5t83.5 -39.5q42 -17 90 -27t67.5 -11.5t27.5 -1.5h41v-413q0 -59 -28.5 -123t-74.5 -116.5t-100 -95t-109 -66.5
t-97 -24v0zM186 653v-333q0 -57 37.5 -121t90 -111.5t107.5 -79.5t90.5 -32t91 32t108 79.5t90 111.5t37.5 121v333q-93 10 -174 43q-83 33 -152 77q-69 -43 -152 -77q-81 -33 -174 -43v0zM490 165l-174 148l54 62l111 -94l212 243l62 -54l-265 -305v0zM490 165z" />
    <glyph glyph-name="xingzuo-copy" unicode="&#xe62d;" 
d="M669 551l-112 270q-2 4 -5.5 10t-9 12t-13 11t-17.5 5q-19 0 -30 -12t-17 -28l-116 -270l-311 -28q-11 -2 -20.5 -10t-11.5 -22t7 -28t21 -25q1 -1 11 -9.5t25.5 -22t35.5 -30.5q19 -16 40 -33q0 -1 55.5 15.5t112.5 34t60 19.5v0q0 18 10.5 34t26.5 24q13 6 28 6
q26 0 45 -19t19 -45q0 -16 -8 -31q1 -1 21 -22.5t42.5 -46.5t42 -46l19.5 -21q9 4 19 4h3q1 3 81.5 146.5t81.5 145.5zM1009 510q-8 7 -28 12l-128 12q-1 -2 -86 -153t-87 -154v-0.5v-0.5q11 -14 11 -31q0 -22 -15.5 -37t-36.5 -15t-36.5 15t-15.5 37q0 9 3 17l-31.5 34
t-63.5 68.5t-33 35.5q-11 -5 -23 -5q-31 0 -51 25l-202 -64q43 -37 66 -57q-19 -79 -34 -141q-7 -27 -13.5 -53.5t-11.5 -47.5q-5 -22 -9 -37.5t-5 -19.5q-2 -9 2 -17.5t12.5 -15t19 -8t20.5 3.5q5 2 19.5 10.5t35 20.5t44.5 26l50 28q59 33 130 76l263 -153q5 -3 15 -6
q9 -4 14 -4q16 0 28 7t9 27q-1 4 -4 19q-3 17 -8 38l-9 49.5t-12 54.5q-13 64 -30 144l209 187q13 15 21.5 26t8.5 25q0 15 -8 22zM146 341v0v0z" />
    <glyph glyph-name="app" unicode="&#xe6a7;" 
d="M504 469v-75h21q44 0 44 38q0 37 -43 37h-22zM793 567v210q0 23 -16.5 39.5t-39.5 16.5h-448q-23 0 -39.5 -16.5t-16.5 -39.5v-210h-104v-350h104v-224q0 -23 16.5 -39.5t39.5 -16.5h448q23 0 39.5 16.5t16.5 39.5v224h104v350h-104zM737 763v-196h-448v196h448zM621 434
q0 -36 -26 -57.5t-66 -20.5h-25v-81h-50v233h80q87 0 87 -74zM262 328l-17 -53h-54l85 233h59l83 -233h-54l-17 53h-85zM513.5 -35q-11.5 0 -20 8t-8.5 20t8.5 20t20 8t19.5 -8t8 -20t-8 -20t-19.5 -8zM737 49h-448v168h448v-168zM791 376.5q-26 -21.5 -66 -20.5h-25v-81
h-50v233h80q87 0 87 -74q0 -36 -26 -57.5zM722 469h-22v-75h21q44 0 44 38q0 37 -43 37zM305 468h-1q-1 -11 -5 -20l-26 -81h62l-26 80q-3 8 -4 21z" />
    <glyph glyph-name="yaoqing" unicode="&#xe63c;" 
d="M782 574q0 108 -74.5 184t-179.5 76q-104 0 -178.5 -76t-74.5 -184q0 -77 40.5 -140.5t106.5 -94.5q-112 -32 -198.5 -124.5t-125.5 -223.5q-3 -9 1.5 -18t14.5 -12q3 -1 7 -1q17 0 22 17q44 148 150.5 239t234.5 91q50 0 98 -15q9 -3 18 2t11 14q3 9 -1.5 18t-14.5 12
l-4 1q66 32 106.5 95t40.5 140v0zM528 362q-85 0 -145.5 62.5t-60.5 150t60.5 149.5t145.5 62t145.5 -62t60.5 -149.5t-60.5 -150t-145.5 -62.5v0zM528 362zM776 261q-2 2 -4 1t-2 -3v-100h-170q-5 0 -8 -3t-3 -8v-97q0 -5 3 -8t8 -3h170v-100q0 -2 2.5 -3t3.5 1l149 154
q3 3 3 7.5t-3 7.5l-149 154v0v0v0zM776 261z" />
    <glyph glyph-name="diannaodenglu" unicode="&#xe687;" 
d="M891 799h-758q-33 0 -56.5 -23.5t-23.5 -56.5v-504q0 -33 23.5 -56.5t56.5 -23.5h299v-102h-99q-14 0 -23 -9t-9 -22.5t9 -23t23 -9.5h390q14 0 23 9.5t9 23t-9 22.5t-23 9h-99v102h267q33 0 56.5 23.5t23.5 56.5v504q0 33 -23.5 56.5t-56.5 23.5zM560 33h-64v102h64
v-102zM907 368v-64v-89q0 -7 -5 -11.5t-11 -4.5h-758q-6 0 -11 4.5t-5 11.5v89v64v351q0 6 5 11t11 5h758q6 0 11 -5t5 -11v-351zM737 635q-10 8 -22.5 6.5t-22.5 -11.5l-246 -250q-12 -12 -24 0l-92 90q-10 10 -26 9t-25 -14q-8 -11 -6.5 -23.5t11.5 -21.5l126 -124
q10 -11 24 -11t24 11l284 288q11 11 9.5 26.5t-14.5 24.5z" />
    <glyph glyph-name="xiaolvdashiicon02-copy-copy" unicode="&#xe688;" 
d="M804 490h-2q-23 0 -44 -13q-9 26 -30 42t-49 16q-25 0 -46 -13q-9 26 -30 42t-49 16q-21 0 -41 -10v86q0 36 -24 61t-59 25q-36 0 -61 -25t-25 -61v-332l-53 52q-26 24 -62.5 23t-59.5 -23q-15 -15 -23.5 -36.5t-5 -46.5t22.5 -45l241 -239q7 -7 16 -13q36 -29 80.5 -43
t120.5 -14q51 0 91 8.5t68 21.5t47.5 35t31 45t18 55t8.5 61t2 68v171q0 36 -24 61t-59 25v0zM841 233q0 -39 -0.5 -58t-4.5 -50.5t-12 -47.5t-24 -37t-39.5 -31t-58.5 -17t-81 -7q-69 0 -114 15t-77 47l-229 227q-14 16 -12.5 32.5t14.5 30.5q12 12 31.5 12.5t31.5 -11.5
l74 -74l49 -49v432q0 17 12 29t29 12t27.5 -12t10.5 -29v-275h1q-1 -2 -1 -4q0 -10 6.5 -16.5t16 -6.5t16.5 6.5t7 16.5q0 2 -1 4h1v113q0 17 11 29t27 12q2 0 4.5 -0.5t9.5 -2.5t12.5 -6t9.5 -12t4 -20v-149h1q-1 -2 -1 -4q0 -10 7 -16.5t16.5 -6.5t16 6.5t6.5 16.5
q0 2 -1 4h1v104q0 17 11 29t28 12q1 -1 4 -1t10 -2.5t12.5 -6.5t9.5 -12t4 -19v-131h1q-1 -2 -1 -4q0 -10 7 -16.5t16 -6.5t15.5 6.5t6.5 16.5v4v0v89q0 17 11.5 29t28.5 12h4t9.5 -2t12 -6t9.5 -12.5t4 -20.5v-165v0zM310 529v75q-11 26 -11 53q0 54 38 92t92 38t92 -38
t38 -92q0 -14 -3 -28q24 -1 41 -19q7 24 7 47q0 73 -51.5 124t-124 51t-123.5 -51t-51 -124q-1 -76 56 -128v0zM310 529z" />
    <glyph glyph-name="qudaoguanli" unicode="&#xe610;" 
d="M989 70l-133 -150q-14 -15 -33.5 -15t-33.5 15l-133 150q-14 15 -14 37t14 37h106v450q0 37 -26 63t-63.5 26t-63.5 -26t-26 -63v-210v-210q0 -86 -61.5 -147.5t-148.5 -61.5t-148 61.5t-61 147.5v449h-107q-14 16 -14 38t14 37l133 150q14 15 33.5 15t33.5 -15l134 -150
q13 -15 13 -37t-13 -38h-108v-449q0 -37 26.5 -63t63.5 -26t63.5 26t26.5 63v210v210q0 86 61.5 147.5t148.5 61.5q61 0 111.5 -33t76.5 -87l17 -44l4 -45v-450h108q13 -15 13 -37t-14 -37v0zM989 70z" />
    </font>
</defs>
</svg>
